<?xml version="1.0" encoding="UTF-8"?>
<!-- Generator: visioncortex VTracer 0.6.3 -->
<svg version="1.1" xmlns="http://www.w3.org/2000/svg" width="1280" height="1280">
<path d="M0 0 C0.86 -0 1.72 -0.01 2.6 -0.01 C3.54 -0.01 4.48 -0 5.44 -0 C6.43 -0 7.42 -0.01 8.44 -0.01 C11.73 -0.01 15.01 -0.01 18.29 -0.01 C20.56 -0.01 22.84 -0.01 25.11 -0.01 C29.88 -0.01 34.66 -0.01 39.43 -0 C45.55 0 51.68 -0 57.8 -0.01 C62.5 -0.01 67.2 -0.01 71.9 -0.01 C74.16 -0.01 76.41 -0.01 78.67 -0.01 C81.82 -0.01 84.98 -0.01 88.13 -0 C89.54 -0.01 89.54 -0.01 90.97 -0.01 C91.83 -0.01 92.69 -0 93.57 0 C94.32 0 95.07 0 95.83 0 C97.79 0.13 97.79 0.13 100.79 1.13 C102.13 1.25 103.47 1.33 104.81 1.37 C105.99 1.42 105.99 1.42 107.2 1.47 C108.03 1.5 108.87 1.53 109.72 1.56 C117.22 1.9 124.42 2.69 131.79 4.13 C137.55 5.16 143.26 6.13 149.1 6.56 C162.23 7.64 175.17 11.31 187.95 14.36 C188.87 14.58 189.79 14.8 190.74 15.02 C192.56 15.46 194.37 15.89 196.19 16.33 C201.07 17.49 205.95 18.62 210.86 19.67 C212.79 20.13 212.79 20.13 216.04 21.25 C218.67 22.27 218.67 22.27 221.1 22 C223.91 22.13 225.22 22.69 227.72 23.88 C231.65 25.73 235.54 26.98 239.72 28.13 C244.82 29.52 249.65 31.16 254.52 33.2 C256.63 34.06 258.74 34.8 260.91 35.5 C271.2 38.85 281.27 42.91 291.35 46.81 C292.46 47.24 292.46 47.24 293.58 47.68 C298.03 49.41 302.42 51.23 306.79 53.13 C306.79 53.79 306.79 54.45 306.79 55.13 C307.47 55.25 308.15 55.37 308.85 55.5 C312.21 56.22 315.49 57.16 318.79 58.13 C319.12 57.14 319.45 56.15 319.79 55.13 C321.43 54.08 323.1 53.09 324.79 52.13 C325.61 51.43 326.44 50.72 327.29 50 C329.79 48.13 329.79 48.13 332.47 47.63 C333.24 47.46 334 47.3 334.79 47.13 C335.49 45.81 336.15 44.48 336.79 43.13 C338.85 42.5 338.85 42.5 340.79 42.13 C341.12 41.47 341.45 40.81 341.79 40.13 C344.85 39.5 344.85 39.5 347.79 39.13 C347.79 38.47 347.79 37.81 347.79 37.13 C349.11 37.13 350.43 37.13 351.79 37.13 C351.79 36.47 351.79 35.81 351.79 35.13 C352.78 35.13 353.77 35.13 354.79 35.13 C354.79 34.47 354.79 33.81 354.79 33.13 C356.39 32.45 357.99 31.79 359.6 31.13 C360.94 30.57 360.94 30.57 362.31 30 C364.79 29.13 364.79 29.13 367.79 29.13 C367.79 28.47 367.79 27.81 367.79 27.13 C369.11 27.13 370.43 27.13 371.79 27.13 C371.79 26.47 371.79 25.81 371.79 25.13 C378.21 23.57 383.63 23.69 389.79 26.13 C390.41 26.37 391.04 26.61 391.68 26.86 C396.65 28.85 396.65 28.85 397.79 31.13 C398.45 31.13 399.11 31.13 399.79 31.13 C400.45 31.79 401.11 32.45 401.79 33.13 C404.65 35.1 407.46 36.95 410.54 38.56 C413.32 40.5 413.66 41.98 414.79 45.13 C416.66 47.65 418.57 49.91 420.79 52.13 C421.45 52.13 422.11 52.13 422.79 52.13 C423.85 54.5 423.85 54.5 424.79 57.13 C424.46 57.79 424.13 58.45 423.79 59.13 C424.68 59.47 424.68 59.47 425.6 59.81 C428.38 61.48 429.35 63.26 430.79 66.13 C430.79 66.79 430.79 67.45 430.79 68.13 C431.45 68.13 432.11 68.13 432.79 68.13 C435.07 72.39 436.47 76.49 437.79 81.13 C438.45 82.12 439.11 83.11 439.79 84.13 C439.46 84.79 439.13 85.45 438.79 86.13 C439.45 86.13 440.11 86.13 440.79 86.13 C441.48 87.41 442.17 88.71 442.85 90 C443.23 90.72 443.62 91.44 444.01 92.18 C444.27 92.82 444.52 93.47 444.79 94.13 C444.46 94.79 444.13 95.45 443.79 96.13 C444.45 96.13 445.11 96.13 445.79 96.13 C448.4 99.68 449.28 102.77 449.79 107.13 C450.12 107.13 450.45 107.13 450.79 107.13 C452.9 116.54 452.9 116.54 453.79 121.13 C454.45 121.13 455.11 121.13 455.79 121.13 C456.08 122.08 456.36 123.02 456.66 124 C457.56 127.18 457.56 127.18 459.79 129.13 C459.41 132.75 459.41 132.75 458.79 136.13 C459.45 136.13 460.11 136.13 460.79 136.13 C461.08 137.08 461.36 138.02 461.66 139 C462.56 142.18 462.56 142.18 464.79 144.13 C464.41 147.75 464.41 147.75 463.79 151.13 C464.45 151.13 465.11 151.13 465.79 151.13 C465.91 152.55 465.91 152.55 466.04 154 C466.43 157.2 466.43 157.2 468.66 158.38 C469.36 158.62 470.06 158.87 470.79 159.13 C473.69 161.06 475.83 163.05 478.28 165.52 C479.15 166.39 480.02 167.27 480.92 168.17 C481.82 169.08 482.73 170 483.66 170.94 C484.56 171.84 485.46 172.75 486.38 173.68 C488.07 175.37 489.75 177.06 491.43 178.76 C493.88 181.22 496.33 183.67 498.79 186.13 C507.79 195.13 507.79 195.13 510.24 197.58 C511.97 199.31 513.71 201.03 515.46 202.73 C516.33 203.58 517.2 204.44 518.1 205.31 C519.42 206.6 519.42 206.6 520.78 207.92 C522.79 210.13 522.79 210.13 522.79 212.13 C523.45 212.13 524.11 212.13 524.79 212.13 C526.27 213.81 526.27 213.81 527.97 216.13 C532.07 221.55 536.35 226.75 541.22 231.5 C542.79 233.13 542.79 233.13 542.79 235.13 C543.45 235.13 544.11 235.13 544.79 235.13 C545.79 236.79 546.79 238.46 547.79 240.13 C548.77 241.31 549.77 242.48 550.79 243.63 C553.16 246.31 554.94 249.06 556.79 252.13 C557.78 252.79 558.77 253.45 559.79 254.13 C559.79 255.12 559.79 256.11 559.79 257.13 C560.45 257.13 561.11 257.13 561.79 257.13 C564.79 261.51 564.79 261.51 564.79 264.13 C565.45 264.13 566.11 264.13 566.79 264.13 C567.83 265.53 567.83 265.53 568.97 267.5 C571.55 271.83 574.44 275.87 577.43 279.93 C578.79 282.13 578.79 282.13 578.79 285.13 C579.78 285.46 580.77 285.79 581.79 286.13 C583.79 289.13 583.79 289.13 583.79 292.13 C584.45 292.13 585.11 292.13 585.79 292.13 C586.1 292.72 586.42 293.31 586.74 293.92 C588.68 297.51 590.54 300.81 593.1 304 C594.79 306.13 594.79 306.13 594.79 309.13 C595.45 309.46 596.11 309.79 596.79 310.13 C600.79 316.48 600.79 316.48 600.79 320.13 C601.45 320.13 602.11 320.13 602.79 320.13 C603.12 321.78 603.45 323.43 603.79 325.13 C604.45 325.13 605.11 325.13 605.79 325.13 C605.79 326.78 605.79 328.43 605.79 330.13 C606.78 330.46 607.77 330.79 608.79 331.13 C610.79 334.13 610.79 334.13 610.79 338.13 C611.45 338.13 612.11 338.13 612.79 338.13 C613.57 339.69 613.57 339.69 614.36 341.28 C614.7 341.95 615.03 342.62 615.38 343.31 C616.11 344.78 616.84 346.24 617.57 347.71 C619.17 350.91 620.78 354.1 622.43 357.28 C622.88 358.13 623.33 358.99 623.79 359.88 C624.18 360.61 624.57 361.35 624.97 362.11 C625.79 364.13 625.79 364.13 625.79 368.13 C626.45 368.13 627.11 368.13 627.79 368.13 C628.12 370.44 628.45 372.75 628.79 375.13 C629.78 375.46 630.77 375.79 631.79 376.13 C632.18 377.44 632.5 378.78 632.79 380.13 C633.77 382.14 634.77 384.13 635.79 386.13 C637.77 390.32 639.21 393.45 638.79 398.13 C639.78 398.46 640.77 398.79 641.79 399.13 C641.46 400.45 641.13 401.77 640.79 403.13 C641.45 403.13 642.11 403.13 642.79 403.13 C643.3 404.37 643.79 405.62 644.29 406.88 C644.57 407.57 644.84 408.27 645.13 408.99 C645.79 411.13 645.79 411.13 645.79 415.13 C646.45 415.13 647.11 415.13 647.79 415.13 C647.97 415.68 648.15 416.24 648.34 416.81 C649.6 420.66 650.9 424.47 652.35 428.25 C653.71 431.83 654.75 435.44 655.79 439.13 C656.24 440.46 656.7 441.8 657.16 443.13 C658.78 447.89 660.03 452.73 661.3 457.6 C662.43 461.91 663.73 466.12 665.2 470.33 C665.93 472.56 666.38 474.81 666.79 477.13 C667.12 478.12 667.45 479.11 667.79 480.13 C668.1 481.46 668.4 482.8 668.69 484.15 C668.86 484.92 669.03 485.7 669.2 486.5 C669.55 488.11 669.89 489.73 670.24 491.35 C671.19 495.72 672.37 499.88 673.79 504.13 C674.1 506.26 674.1 506.26 674.22 508.25 C674.55 511.81 675.25 515.07 676.19 518.51 C677.99 525.57 679.01 532.67 679.97 539.88 C680.15 541.16 680.33 542.44 680.51 543.76 C680.94 546.88 681.37 550 681.79 553.13 C682.12 553.13 682.45 553.13 682.79 553.13 C682.77 554.18 682.75 555.23 682.72 556.31 C682.66 559.88 682.66 559.88 683.26 562.31 C684.13 566.97 684.15 571.71 684.3 576.45 C684.36 577.6 684.36 577.6 684.41 578.78 C684.45 579.82 684.45 579.82 684.48 580.87 C684.71 583.22 684.71 583.22 685.79 585.65 C687.09 590.19 687.07 594.37 687.05 599.08 C687.05 600.06 687.05 601.05 687.06 602.06 C687.07 605.31 687.06 608.56 687.05 611.81 C687.05 614.08 687.06 616.34 687.06 618.61 C687.06 623.35 687.06 628.09 687.05 632.83 C687.04 638.9 687.04 644.97 687.05 651.05 C687.06 655.72 687.06 660.4 687.05 665.07 C687.05 667.31 687.06 669.55 687.06 671.79 C687.06 674.92 687.06 678.05 687.05 681.18 C687.05 682.1 687.05 683.02 687.06 683.97 C687.03 688.78 686.59 692.6 684.79 697.13 C684.47 699.33 684.47 699.33 684.44 701.44 C684.41 702.21 684.38 702.97 684.35 703.76 C684.33 704.54 684.31 705.32 684.29 706.13 C684.13 711.58 683.6 715.93 681.79 721.13 C681.57 723.35 681.43 725.58 681.35 727.81 C680.66 740.17 678.69 752.35 675.47 764.3 C674.71 767.44 674.24 770.56 673.79 773.75 C673.09 778.59 672.02 783.05 670.51 787.7 C669.48 791.15 668.85 794.65 668.22 798.19 C667.79 800.13 667.79 800.13 666.79 801.13 C666.13 804.27 665.54 807.42 664.98 810.58 C664.34 814.01 663.75 816.18 661.79 819.13 C661.06 821.73 660.4 824.31 659.79 826.94 C658.65 831.76 657.42 836.45 655.79 841.13 C655.54 841.89 655.29 842.65 655.04 843.44 C653.9 846.94 652.71 850.31 651.22 853.69 C649.64 857.49 648.7 861.12 647.79 865.13 C647.13 865.13 646.47 865.13 645.79 865.13 C645.6 866.15 645.6 866.15 645.41 867.19 C644.7 870.55 643.76 873.83 642.79 877.13 C642.13 877.13 641.47 877.13 640.79 877.13 C641.12 878.45 641.45 879.77 641.79 881.13 C640.8 881.46 639.81 881.79 638.79 882.13 C638.68 883.34 638.58 884.56 638.47 885.81 C638.01 889.59 636.93 891.95 634.79 895.13 C634.1 896.78 633.44 898.45 632.79 900.13 C631.92 902.23 631.04 904.34 630.16 906.44 C629.72 907.51 629.27 908.58 628.81 909.68 C628.47 910.49 628.14 911.29 627.79 912.13 C627.13 912.13 626.47 912.13 625.79 912.13 C625.6 913.21 625.6 913.21 625.41 914.31 C624.8 917.08 623.9 919.52 622.79 922.13 C622.13 922.13 621.47 922.13 620.79 922.13 C620.6 923.21 620.6 923.21 620.41 924.31 C619.8 927.08 618.9 929.52 617.79 932.13 C617.13 932.13 616.47 932.13 615.79 932.13 C615.6 933.21 615.6 933.21 615.41 934.31 C614.8 937.08 613.9 939.52 612.79 942.13 C612.13 942.13 611.47 942.13 610.79 942.13 C610.68 942.83 610.58 943.54 610.47 944.27 C609.7 947.5 608.43 949.93 606.79 952.81 C606.25 953.77 605.71 954.72 605.16 955.7 C604.71 956.5 604.25 957.3 603.79 958.13 C603.46 958.79 603.13 959.45 602.79 960.13 C602.13 960.13 601.47 960.13 600.79 960.13 C600.73 960.81 600.66 961.49 600.6 962.19 C599.66 965.58 598.15 967.59 596.05 970.36 C594.6 972.3 594.6 972.3 593.16 975.38 C591.89 977.92 590.75 979.17 588.79 981.13 C588.54 982.15 588.54 982.15 588.29 983.19 C587.79 985.13 587.79 985.13 584.79 987.13 C584.46 988.12 584.13 989.11 583.79 990.13 C583.46 991.12 583.13 992.11 582.79 993.13 C580.72 993.81 580.72 993.81 578.79 994.13 C578.68 995.08 578.58 996.02 578.47 997 C577.79 1000.13 577.79 1000.13 574.79 1002.13 C574.44 1003.46 574.11 1004.79 573.79 1006.13 C572.35 1007.88 572.35 1007.88 570.79 1009.13 C570.13 1009.13 569.47 1009.13 568.79 1009.13 C569.12 1010.12 569.45 1011.11 569.79 1012.13 C569.13 1012.13 568.47 1012.13 567.79 1012.13 C567.54 1012.91 567.29 1013.69 567.04 1014.5 C565.6 1017.51 564.76 1017.88 561.79 1019.13 C561.46 1019.79 561.13 1020.45 560.79 1021.13 C560.13 1021.13 559.47 1021.13 558.79 1021.13 C559.12 1022.45 559.45 1023.77 559.79 1025.13 C558.98 1025.7 558.18 1026.28 557.35 1026.88 C554.54 1029.34 554.62 1029.77 553.79 1033.13 C552.52 1035.01 552.52 1035.01 550.97 1036.81 C550.22 1037.72 550.22 1037.72 549.46 1038.64 C547.58 1040.31 546.24 1040.73 543.79 1041.13 C543.73 1042 543.68 1042.87 543.63 1043.76 C542.58 1047.96 540.43 1050.09 537.35 1052.94 C536.59 1053.67 536.59 1053.67 535.82 1054.42 C532.16 1057.94 532.16 1057.94 529.79 1059.13 C529.66 1059.71 529.54 1060.3 529.41 1060.9 C528.57 1063.92 526.99 1065.44 524.86 1067.73 C524.05 1068.61 523.23 1069.49 522.39 1070.4 C518.17 1074.83 513.89 1079.19 509.56 1083.52 C508.61 1084.48 507.66 1085.43 506.7 1086.39 C504.72 1088.38 502.73 1090.37 500.75 1092.35 C498.22 1094.88 495.71 1097.41 493.19 1099.94 C491.23 1101.91 489.26 1103.88 487.29 1105.85 C485.92 1107.23 484.54 1108.61 483.17 1110 C469.99 1123.13 469.99 1123.13 465.79 1123.13 C464.22 1124.71 464.22 1124.71 462.6 1126.75 C454.56 1136.2 454.56 1136.2 448.79 1138.13 C446.54 1140.27 444.39 1142.47 442.29 1144.75 C440.31 1146.56 438.09 1147.76 435.79 1149.13 C434.92 1149.87 434.05 1150.61 433.16 1151.38 C432.38 1151.95 431.59 1152.53 430.79 1153.13 C429.8 1152.8 428.81 1152.47 427.79 1152.13 C427.75 1152.68 427.7 1153.24 427.66 1153.81 C426.35 1157.29 423.91 1159.29 420.79 1161.13 C416.91 1161.94 416.91 1161.94 413.79 1162.13 C413.13 1164.11 412.47 1166.09 411.79 1168.13 C410.14 1168.46 408.49 1168.79 406.79 1169.13 C406.79 1169.79 406.79 1170.45 406.79 1171.13 C405.36 1171.25 405.36 1171.25 403.91 1171.38 C400.7 1171.77 400.7 1171.77 399.54 1174.06 C399.29 1174.75 399.04 1175.43 398.79 1176.13 C396.79 1178.13 396.79 1178.13 394.72 1178.63 C393.77 1178.87 393.77 1178.87 392.79 1179.13 C392.46 1179.79 392.13 1180.45 391.79 1181.13 C390.33 1181.31 390.33 1181.31 388.85 1181.5 C387.33 1181.81 387.33 1181.81 385.79 1182.13 C384.47 1184.01 384.47 1184.01 383.79 1186.13 C383.13 1186.79 382.47 1187.45 381.79 1188.13 C378.66 1187.75 378.66 1187.75 375.79 1187.13 C375.54 1187.75 375.29 1188.36 375.04 1189 C373.56 1191.51 372.44 1192.05 369.79 1193.13 C367.32 1194.36 366.36 1195.91 364.79 1198.13 C363.47 1197.8 362.15 1197.47 360.79 1197.13 C360.79 1197.79 360.79 1198.45 360.79 1199.13 C359.14 1199.46 357.49 1199.79 355.79 1200.13 C355.79 1200.79 355.79 1201.45 355.79 1202.13 C355.13 1202.13 354.47 1202.13 353.79 1202.13 C353.13 1202.79 352.47 1203.45 351.79 1204.13 C351.46 1203.8 351.13 1203.47 350.79 1203.13 C350.13 1204.12 349.47 1205.11 348.79 1206.13 C348.13 1205.8 347.47 1205.47 346.79 1205.13 C346.79 1206.12 346.79 1207.11 346.79 1208.13 C344.81 1207.8 342.83 1207.47 340.79 1207.13 C340.79 1208.45 340.79 1209.77 340.79 1211.13 C340.13 1211.13 339.47 1211.13 338.79 1211.13 C338.79 1210.47 338.79 1209.81 338.79 1209.13 C338.4 1209.62 338 1210.12 337.6 1210.63 C335.24 1212.58 333.77 1212.37 330.79 1212.13 C330.79 1213.45 330.79 1214.77 330.79 1216.13 C330.13 1216.13 329.47 1216.13 328.79 1216.13 C328.46 1215.8 328.13 1215.47 327.79 1215.13 C327.46 1216.12 327.13 1217.11 326.79 1218.13 C325.16 1218.63 325.16 1218.63 322.79 1219.13 C321.61 1219.64 320.44 1220.16 319.22 1220.69 C315.79 1222.13 315.79 1222.13 312.79 1222.13 C312.79 1222.79 312.79 1223.45 312.79 1224.13 C308.91 1223.25 308.91 1223.25 307.79 1222.13 C307.75 1222.75 307.7 1223.36 307.66 1224 C307.37 1224.7 307.08 1225.4 306.79 1226.13 C303.97 1227.19 303.97 1227.19 300.79 1228.13 C300.17 1228.62 299.55 1229.12 298.91 1229.63 C296.27 1231.49 293.82 1232.01 290.69 1232.7 C288.58 1233.14 288.58 1233.14 285.79 1234.13 C285.46 1234.79 285.13 1235.45 284.79 1236.13 C282.46 1236.51 280.13 1236.84 277.79 1237.13 C277.13 1237.46 276.47 1237.79 275.79 1238.13 C274.8 1237.8 273.81 1237.47 272.79 1237.13 C272.79 1238.12 272.79 1239.11 272.79 1240.13 C267.68 1242.03 263.32 1243.55 257.79 1243.13 C257.46 1244.12 257.13 1245.11 256.79 1246.13 C252.17 1246.79 247.55 1247.45 242.79 1248.13 C242.46 1249.12 242.13 1250.11 241.79 1251.13 C240.64 1251.25 239.5 1251.37 238.32 1251.49 C236.83 1251.66 235.34 1251.83 233.85 1252 C233.09 1252.08 232.34 1252.16 231.56 1252.24 C229.63 1252.47 227.71 1252.79 225.79 1253.13 C225.46 1253.79 225.13 1254.45 224.79 1255.13 C226.44 1255.13 228.09 1255.13 229.79 1255.13 C229.79 1255.46 229.79 1255.79 229.79 1256.13 C228.94 1256.19 228.1 1256.25 227.23 1256.31 C226.14 1256.39 225.04 1256.48 223.91 1256.56 C222.82 1256.65 221.73 1256.73 220.61 1256.81 C217.84 1256.96 217.84 1256.96 215.79 1258.13 C213.11 1258.26 210.46 1258.17 207.79 1258.13 C207.79 1258.79 207.79 1259.45 207.79 1260.13 C206.83 1260.31 206.83 1260.31 205.85 1260.5 C204.83 1260.81 204.83 1260.81 203.79 1261.13 C203.46 1261.79 203.13 1262.45 202.79 1263.13 C202.07 1262.94 201.34 1262.76 200.6 1262.56 C197.66 1262.11 195.65 1262.39 192.79 1263.13 C192.79 1263.46 192.79 1263.79 192.79 1264.13 C191.12 1264.17 189.45 1264.17 187.79 1264.13 C187.46 1263.8 187.13 1263.47 186.79 1263.13 C186.34 1263.77 185.89 1264.42 185.43 1265.08 C181.42 1268.19 177.48 1267.8 172.54 1267.88 C171.6 1267.91 170.67 1267.94 169.7 1267.97 C167.4 1268.04 165.09 1268.09 162.79 1268.13 C162.46 1269.12 162.13 1270.11 161.79 1271.13 C160.8 1270.8 159.81 1270.47 158.79 1270.13 C158.46 1270.79 158.13 1271.45 157.79 1272.13 C150.34 1273.69 142.36 1273.19 134.78 1273.06 C131.9 1272.78 131.9 1272.78 130.79 1274.13 C129.12 1274.17 127.45 1274.17 125.79 1274.13 C125.79 1274.79 125.79 1275.45 125.79 1276.13 C122.02 1278.01 117.17 1277.16 113 1277.09 C109.66 1277.05 106.98 1277.06 103.79 1278.13 C102.8 1277.8 101.81 1277.47 100.79 1277.13 C100.46 1277.79 100.13 1278.45 99.79 1279.13 C98.79 1280.13 98.79 1280.13 96.99 1280.25 C96.2 1280.25 95.42 1280.25 94.6 1280.25 C93.7 1280.25 92.8 1280.25 91.87 1280.25 C90.88 1280.25 89.88 1280.24 88.85 1280.24 C87.81 1280.24 86.76 1280.24 85.69 1280.24 C82.22 1280.24 78.75 1280.23 75.28 1280.22 C72.89 1280.22 70.49 1280.22 68.09 1280.22 C61.77 1280.22 55.44 1280.21 49.12 1280.2 C42.67 1280.19 36.22 1280.18 29.77 1280.18 C17.11 1280.17 4.45 1280.15 -8.21 1280.13 C-8.21 1279.14 -8.21 1278.15 -8.21 1277.13 C-9.2 1277.46 -10.19 1277.79 -11.21 1278.13 C-14.36 1278.21 -17.5 1277.99 -20.65 1277.81 C-21.94 1277.76 -21.94 1277.76 -23.25 1277.71 C-24.08 1277.66 -24.92 1277.62 -25.77 1277.58 C-26.53 1277.54 -27.28 1277.5 -28.06 1277.46 C-30.44 1277.09 -32.08 1276.23 -34.21 1275.13 C-36.45 1274.84 -38.71 1274.64 -40.96 1274.5 C-42.72 1274.39 -42.72 1274.39 -44.51 1274.28 C-45.4 1274.23 -46.29 1274.18 -47.21 1274.13 C-47.21 1273.8 -47.21 1273.47 -47.21 1273.13 C-48.78 1273.04 -48.78 1273.04 -50.39 1272.94 C-51.77 1272.86 -53.15 1272.77 -54.53 1272.69 C-55.56 1272.63 -55.56 1272.63 -56.62 1272.57 C-59.68 1272.38 -62.28 1272.1 -65.21 1271.13 C-66.77 1271.06 -68.34 1271.04 -69.9 1271.06 C-71.11 1271.08 -71.11 1271.08 -72.35 1271.09 C-72.96 1271.1 -73.58 1271.12 -74.21 1271.13 C-74.21 1270.8 -74.21 1270.47 -74.21 1270.13 C-72.23 1269.8 -70.25 1269.47 -68.21 1269.13 C-69.78 1267.56 -71.37 1267.93 -73.54 1267.85 C-74.87 1267.79 -74.87 1267.79 -76.21 1267.73 C-77.14 1267.7 -78.07 1267.66 -79.03 1267.63 C-80.84 1267.56 -82.66 1267.49 -84.48 1267.41 C-85.7 1267.36 -85.7 1267.36 -86.94 1267.32 C-89.16 1267.13 -91.1 1266.85 -93.21 1266.13 C-93.54 1265.47 -93.87 1264.81 -94.21 1264.13 C-96.2 1264.19 -98.18 1264.26 -100.17 1264.32 C-102.21 1264.13 -102.21 1264.13 -105.21 1262.13 C-106.04 1262.31 -106.86 1262.5 -107.71 1262.69 C-108.54 1262.83 -109.36 1262.98 -110.21 1263.13 C-110.65 1262.67 -111.08 1262.22 -111.53 1261.75 C-114.27 1259.11 -117.48 1259.48 -121.21 1259.13 C-121.87 1258.8 -122.53 1258.47 -123.21 1258.13 C-125.25 1257.66 -127.29 1257.24 -129.34 1256.82 C-131.21 1256.13 -131.21 1256.13 -133.21 1253.13 C-135.16 1253.09 -137.12 1253.07 -139.06 1253.15 C-142.32 1253.12 -145.13 1252.13 -148.21 1251.13 C-150.07 1250.6 -150.07 1250.6 -151.96 1250.06 C-162.64 1246.98 -162.64 1246.98 -165.21 1243.13 C-167.49 1242.95 -167.49 1242.95 -170.03 1243.25 C-174.88 1243.43 -174.88 1243.43 -177.96 1240.69 C-178.71 1239.84 -179.45 1239 -180.21 1238.13 C-183.23 1237.3 -183.23 1237.3 -186.21 1237.13 C-188.45 1236.63 -190.16 1236.15 -192.21 1235.13 C-191.88 1234.14 -191.55 1233.15 -191.21 1232.13 C-192.39 1232.5 -192.39 1232.5 -193.59 1232.88 C-199.91 1233.31 -205.72 1230.1 -211.21 1227.13 C-211.69 1226.59 -212.16 1226.05 -212.65 1225.5 C-214.83 1223.58 -216.37 1224.06 -219.21 1224.13 C-221.4 1223.19 -221.4 1223.19 -223.21 1222.13 C-223.87 1221.8 -224.53 1221.47 -225.21 1221.13 C-225.21 1220.47 -225.21 1219.81 -225.21 1219.13 C-226.49 1219 -227.77 1218.88 -229.09 1218.75 C-232.96 1218.38 -232.96 1218.38 -235.21 1216.13 C-235.87 1215.8 -236.53 1215.47 -237.21 1215.13 C-237.21 1214.47 -237.21 1213.81 -237.21 1213.13 C-238.12 1213.21 -239.03 1213.29 -239.96 1213.38 C-243.91 1213.07 -244.68 1212.02 -247.21 1209.13 C-247.87 1209.13 -248.53 1209.13 -249.21 1209.13 C-249.21 1208.47 -249.21 1207.81 -249.21 1207.13 C-249.91 1207.02 -250.62 1206.92 -251.34 1206.81 C-254.65 1206.02 -257.28 1204.86 -260.21 1203.13 C-260.54 1202.14 -260.87 1201.15 -261.21 1200.13 C-262.53 1200.46 -263.85 1200.79 -265.21 1201.13 C-265.21 1200.47 -265.21 1199.81 -265.21 1199.13 C-265.87 1199.13 -266.53 1199.13 -267.21 1199.13 C-267.21 1198.47 -267.21 1197.81 -267.21 1197.13 C-268.16 1197.02 -269.11 1196.92 -270.09 1196.81 C-273.21 1196.13 -273.21 1196.13 -275.21 1193.13 C-277.21 1192.75 -279.21 1192.42 -281.21 1192.13 C-282.55 1190.79 -283.88 1189.46 -285.21 1188.13 C-286.14 1187.94 -286.14 1187.94 -287.09 1187.75 C-289.92 1186.92 -291.18 1185.22 -293.21 1183.13 C-294.2 1182.8 -295.19 1182.47 -296.21 1182.13 C-297.9 1180.56 -297.9 1180.56 -299.21 1179.13 C-299.87 1179.46 -300.53 1179.79 -301.21 1180.13 C-301.21 1179.47 -301.21 1178.81 -301.21 1178.13 C-302.2 1177.8 -303.19 1177.47 -304.21 1177.13 C-305.93 1175.98 -307.63 1174.81 -309.28 1173.56 C-311.15 1172.08 -311.15 1172.08 -313.21 1171.13 C-313.21 1170.47 -313.21 1169.81 -313.21 1169.13 C-314.2 1169.46 -315.19 1169.79 -316.21 1170.13 C-316.21 1169.47 -316.21 1168.81 -316.21 1168.13 C-318.33 1167.01 -318.33 1167.01 -321.21 1166.13 C-321.9 1164.06 -321.9 1164.06 -322.21 1162.13 C-323.53 1162.46 -324.85 1162.79 -326.21 1163.13 C-326.44 1162.49 -326.67 1161.85 -326.9 1161.19 C-328.04 1158.86 -328.04 1158.86 -330.71 1158.56 C-331.54 1158.42 -332.36 1158.28 -333.21 1158.13 C-335.21 1155.13 -335.21 1155.13 -335.21 1154.13 C-336.53 1153.47 -337.85 1152.81 -339.21 1152.13 C-339.21 1151.47 -339.21 1150.81 -339.21 1150.13 C-342.6 1148.62 -342.6 1148.62 -346.21 1148.13 C-347.57 1146.48 -348.9 1144.81 -350.21 1143.13 C-350.87 1142.8 -351.53 1142.47 -352.21 1142.13 C-352.21 1141.47 -352.21 1140.81 -352.21 1140.13 C-353.2 1140.46 -354.19 1140.79 -355.21 1141.13 C-355.54 1140.14 -355.87 1139.15 -356.21 1138.13 C-358.72 1136.91 -358.72 1136.91 -361.21 1136.13 C-361.21 1135.47 -361.21 1134.81 -361.21 1134.13 C-361.87 1134.13 -362.53 1134.13 -363.21 1134.13 C-364.28 1132.96 -365.29 1131.74 -366.28 1130.5 C-368.78 1127.54 -371.08 1125.39 -374.4 1123.38 C-379.39 1120.3 -383.22 1116.32 -387.23 1112.09 C-388.52 1110.74 -389.86 1109.43 -391.21 1108.13 C-391.87 1108.13 -392.53 1108.13 -393.21 1108.13 C-394.84 1106.75 -394.84 1106.75 -396.21 1105.13 C-396.21 1104.47 -396.21 1103.81 -396.21 1103.13 C-396.87 1102.8 -397.53 1102.47 -398.21 1102.13 C-399.55 1100.54 -400.9 1098.96 -402.23 1097.37 C-404.68 1094.6 -407.24 1091.94 -409.84 1089.31 C-410.76 1088.38 -411.68 1087.45 -412.63 1086.48 C-414.82 1084.48 -416.5 1083.23 -419.21 1082.13 C-419.21 1081.47 -419.21 1080.81 -419.21 1080.13 C-419.87 1079.8 -420.53 1079.47 -421.21 1079.13 C-425.83 1074.78 -430.28 1070.1 -434.21 1065.13 C-434.21 1064.47 -434.21 1063.81 -434.21 1063.13 C-434.87 1063.13 -435.53 1063.13 -436.21 1063.13 C-436.54 1061.81 -436.87 1060.49 -437.21 1059.13 C-437.87 1059.13 -438.53 1059.13 -439.21 1059.13 C-439.21 1058.47 -439.21 1057.81 -439.21 1057.13 C-439.87 1056.8 -440.53 1056.47 -441.21 1056.13 C-442.2 1055.07 -443.16 1053.98 -444.09 1052.88 C-444.89 1051.93 -444.89 1051.93 -445.7 1050.96 C-446.91 1049.49 -448.1 1048 -449.28 1046.5 C-451.91 1043.27 -454.8 1040.34 -457.96 1037.63 C-459.66 1035.59 -459.86 1033.71 -460.21 1031.13 C-460.87 1031.13 -461.53 1031.13 -462.21 1031.13 C-462.21 1030.47 -462.21 1029.81 -462.21 1029.13 C-462.87 1028.8 -463.53 1028.47 -464.21 1028.13 C-467.21 1024.55 -467.21 1024.55 -467.21 1022.13 C-467.87 1022.13 -468.53 1022.13 -469.21 1022.13 C-469.21 1021.47 -469.21 1020.81 -469.21 1020.13 C-469.87 1020.13 -470.53 1020.13 -471.21 1020.13 C-475.04 1013.5 -475.04 1013.5 -476.34 1010.75 C-477.11 1008.94 -477.11 1008.94 -479.21 1008.13 C-479.21 1007.47 -479.21 1006.81 -479.21 1006.13 C-479.87 1006.13 -480.53 1006.13 -481.21 1006.13 C-481.21 1005.14 -481.21 1004.15 -481.21 1003.13 C-481.87 1003.13 -482.53 1003.13 -483.21 1003.13 C-483.79 1002.1 -484.37 1001.06 -484.96 1000 C-486.37 997.53 -487.85 995.15 -489.46 992.81 C-491.21 990.13 -491.21 990.13 -491.21 988.13 C-491.87 987.8 -492.53 987.47 -493.21 987.13 C-494.4 985.71 -494.4 985.71 -495.65 983.94 C-496.27 983.08 -496.27 983.08 -496.9 982.21 C-498.54 979.61 -499.84 976.88 -501.21 974.13 C-502.7 971.4 -504.24 968.7 -505.78 966 C-506.57 964.6 -507.36 963.21 -508.15 961.81 C-508.68 960.89 -508.68 960.89 -509.21 959.95 C-509.93 958.65 -510.59 957.31 -511.22 955.96 C-512.08 953.96 -512.08 953.96 -514.21 953.13 C-514.57 951.8 -514.9 950.46 -515.21 949.13 C-516.2 947.64 -516.2 947.64 -517.21 946.13 C-517.21 944.81 -517.21 943.49 -517.21 942.13 C-517.87 942.13 -518.53 942.13 -519.21 942.13 C-529.65 921.25 -529.65 921.25 -530.89 918.76 C-531.83 916.9 -532.77 915.04 -533.72 913.18 C-536.48 907.76 -539.03 902.36 -541.22 896.69 C-542.33 893.81 -543.52 890.97 -544.71 888.13 C-546.58 883.65 -548.41 879.16 -550.19 874.65 C-550.89 872.93 -551.61 871.21 -552.36 869.51 C-555.43 862.46 -557.83 855.32 -560.07 847.98 C-561.19 844.33 -562.33 840.72 -563.71 837.16 C-565.45 832.62 -566.83 827.98 -568.21 823.31 C-568.46 822.49 -568.71 821.66 -568.96 820.81 C-572.07 810.37 -574.8 799.88 -577.21 789.25 C-577.46 788.17 -577.71 787.09 -577.96 785.97 C-578.46 783.79 -578.96 781.61 -579.46 779.43 C-580.23 776.04 -581.02 772.66 -581.81 769.27 C-584.58 757.26 -586.55 745.21 -588.15 732.99 C-588.77 728.28 -589.45 723.61 -590.34 718.94 C-591.42 712.84 -591.64 706.71 -591.87 700.53 C-591.9 699.75 -591.93 698.96 -591.97 698.15 C-591.99 697.45 -592.01 696.75 -592.04 696.02 C-592.16 693.9 -592.16 693.9 -593.21 691.13 C-593.3 689.73 -593.34 688.34 -593.34 686.94 C-593.34 686.09 -593.35 685.24 -593.35 684.36 C-593.35 683.43 -593.34 682.49 -593.34 681.53 C-593.34 680.55 -593.35 679.57 -593.35 678.55 C-593.35 675.29 -593.35 672.03 -593.35 668.77 C-593.35 666.5 -593.35 664.24 -593.35 661.97 C-593.35 657.22 -593.35 652.46 -593.34 647.71 C-593.34 641.62 -593.34 635.53 -593.35 629.44 C-593.35 624.76 -593.35 620.08 -593.35 615.4 C-593.35 613.15 -593.35 610.91 -593.35 608.67 C-593.35 605.52 -593.35 602.38 -593.34 599.24 C-593.34 598.31 -593.35 597.39 -593.35 596.44 C-593.33 591.55 -593.02 586.94 -592.21 582.13 C-592.08 580.52 -591.97 578.9 -591.9 577.29 C-591.85 576.45 -591.81 575.62 -591.77 574.76 C-591.73 573.91 -591.69 573.06 -591.65 572.19 C-591.61 571.31 -591.56 570.44 -591.52 569.54 C-591.41 567.4 -591.31 565.26 -591.21 563.13 C-590.88 563.13 -590.55 563.13 -590.21 563.13 C-590.01 561.34 -590.01 561.34 -589.81 559.51 C-589.63 557.95 -589.45 556.38 -589.28 554.81 C-589.19 554.03 -589.1 553.24 -589.01 552.43 C-588.88 551.3 -588.88 551.3 -588.75 550.14 C-588.67 549.44 -588.59 548.75 -588.51 548.03 C-588.21 546.13 -588.21 546.13 -587.21 543.13 C-586.99 540.73 -586.8 538.34 -586.65 535.94 C-586.57 534.67 -586.48 533.39 -586.4 532.08 C-586.31 530.62 -586.31 530.62 -586.21 529.13 C-585.88 529.13 -585.55 529.13 -585.21 529.13 C-584.88 525.17 -584.55 521.21 -584.21 517.13 C-583.55 517.13 -582.89 517.13 -582.21 517.13 C-581.88 512.51 -581.55 507.89 -581.21 503.13 C-580.88 503.13 -580.55 503.13 -580.21 503.13 C-578.21 494.33 -578.21 494.33 -576.71 485.44 C-576.21 482.13 -576.21 482.13 -575.21 480.13 C-574.88 479.14 -574.55 478.15 -574.21 477.13 C-573.21 474.13 -573.21 474.13 -572.21 472.13 C-572.06 470.73 -571.94 469.34 -571.84 467.94 C-571.39 463.45 -570.13 460.19 -568.21 456.13 C-567.84 454.8 -567.51 453.47 -567.21 452.13 C-566.09 448.01 -564.85 444.07 -563.21 440.13 C-561.68 435.52 -560.35 430.85 -559.21 426.13 C-558.55 426.13 -557.89 426.13 -557.21 426.13 C-557.16 425.51 -557.11 424.9 -557.06 424.26 C-556.99 423.46 -556.91 422.65 -556.84 421.81 C-556.77 421.01 -556.7 420.21 -556.63 419.39 C-556.21 417.13 -556.21 417.13 -554.21 414.13 C-552.55 410.5 -551.76 407.08 -551.21 403.13 C-550.55 403.13 -549.89 403.13 -549.21 403.13 C-548.88 401.15 -548.55 399.17 -548.21 397.13 C-547.55 397.13 -546.89 397.13 -546.21 397.13 C-546.25 396.36 -546.3 395.6 -546.34 394.81 C-546.21 392.13 -546.21 392.13 -544.21 389.13 C-542.92 386.17 -541.91 383.28 -541.21 380.13 C-540.55 380.13 -539.89 380.13 -539.21 380.13 C-539.21 378.81 -539.21 377.49 -539.21 376.13 C-538.55 375.8 -537.89 375.47 -537.21 375.13 C-537.09 374.22 -536.97 373.31 -536.84 372.38 C-536.11 368.58 -534.63 367.07 -532.21 364.13 C-531.97 362.89 -531.97 362.89 -531.71 361.63 C-531.06 358.35 -529.28 356.71 -527.21 354.13 C-527.05 353.3 -526.88 352.48 -526.71 351.63 C-526.06 348.35 -524.28 346.71 -522.21 344.13 C-521.56 341.6 -521.56 341.6 -521.21 339.13 C-520.1 336.53 -519.23 335.14 -517.21 333.13 C-516.51 331.81 -515.85 330.47 -515.21 329.13 C-513.21 325.13 -511.21 321.13 -509.21 317.13 C-508.55 317.13 -507.89 317.13 -507.21 317.13 C-505.89 313.83 -504.57 310.53 -503.21 307.13 C-502.55 307.13 -501.89 307.13 -501.21 307.13 C-501.12 306.59 -501.02 306.04 -500.93 305.49 C-500 302.43 -498.49 300.07 -496.78 297.38 C-496.16 296.39 -495.54 295.41 -494.9 294.39 C-494.35 293.64 -493.79 292.9 -493.21 292.13 C-492.55 292.13 -491.89 292.13 -491.21 292.13 C-491.11 291.36 -491.01 290.6 -490.9 289.81 C-490.14 286.86 -489.34 286.17 -487.21 284.13 C-486.5 282.02 -486.5 282.02 -486.21 280.13 C-485.55 280.13 -484.89 280.13 -484.21 280.13 C-483.88 279.14 -483.55 278.15 -483.21 277.13 C-482.55 277.13 -481.89 277.13 -481.21 277.13 C-481.13 276.61 -481.05 276.1 -480.96 275.56 C-479.48 270.75 -476.55 265.92 -473.21 262.13 C-472.55 262.13 -471.89 262.13 -471.21 262.13 C-470.93 260.58 -470.93 260.58 -470.65 259 C-469.51 254.88 -467.21 253.01 -463.87 250.49 C-461.95 249.04 -461.95 249.04 -460.21 246.13 C-459.74 245.67 -459.26 245.22 -458.78 244.75 C-457.05 243.09 -457.05 243.09 -455.71 240.5 C-454.21 238.13 -454.21 238.13 -451.21 237.13 C-451.21 235.81 -451.21 234.49 -451.21 233.13 C-450.55 233.13 -449.89 233.13 -449.21 233.13 C-448.91 232.32 -448.91 232.32 -448.59 231.5 C-446.29 227.53 -442.79 224.67 -439.47 221.55 C-436.42 218.85 -436.42 218.85 -434.84 215.26 C-433.91 212.08 -431.93 210.47 -429.6 208.15 C-429.13 207.66 -428.65 207.18 -428.16 206.69 C-426.57 205.1 -424.98 203.52 -423.39 201.94 C-422.28 200.83 -421.18 199.73 -420.07 198.62 C-417.75 196.3 -415.43 193.99 -413.1 191.68 C-410.13 188.73 -407.17 185.77 -404.21 182.81 C-401.93 180.52 -399.64 178.24 -397.35 175.96 C-396.26 174.87 -395.17 173.78 -394.08 172.69 C-392.55 171.16 -391.01 169.63 -389.47 168.11 C-388.6 167.24 -387.72 166.37 -386.83 165.48 C-384.11 163.04 -381.27 161.11 -378.21 159.13 C-375.11 155.91 -374.28 152.41 -373.21 148.13 C-372.55 148.13 -371.89 148.13 -371.21 148.13 C-371.06 146.43 -371.06 146.43 -370.9 144.71 C-370.29 139.86 -368.83 135.47 -367.21 130.88 C-366.67 129.31 -366.13 127.74 -365.59 126.17 C-365.35 125.49 -365.11 124.81 -364.86 124.11 C-364.21 122.13 -363.69 120.15 -363.21 118.13 C-362.55 118.13 -361.89 118.13 -361.21 118.13 C-361.21 116.48 -361.21 114.83 -361.21 113.13 C-360.55 113.13 -359.89 113.13 -359.21 113.13 C-358.88 110.49 -358.55 107.85 -358.21 105.13 C-357.55 105.13 -356.89 105.13 -356.21 105.13 C-356.09 104.45 -355.97 103.77 -355.84 103.06 C-355.12 99.7 -354.18 96.43 -353.21 93.13 C-352.55 93.13 -351.89 93.13 -351.21 93.13 C-351.21 91.48 -351.21 89.83 -351.21 88.13 C-350.55 88.13 -349.89 88.13 -349.21 88.13 C-348.88 86.48 -348.55 84.83 -348.21 83.13 C-347.55 83.13 -346.89 83.13 -346.21 83.13 C-346.21 81.48 -346.21 79.83 -346.21 78.13 C-345.55 78.13 -344.89 78.13 -344.21 78.13 C-343.88 76.48 -343.55 74.83 -343.21 73.13 C-342.55 73.13 -341.89 73.13 -341.21 73.13 C-341.3 72.38 -341.38 71.64 -341.46 70.88 C-341.13 67.26 -339.85 66.55 -337.21 64.13 C-336.26 62.75 -335.31 61.37 -334.41 59.96 C-330.35 53.73 -326.03 47.79 -321.21 42.13 C-320.88 41.47 -320.55 40.81 -320.21 40.13 C-318.73 39.63 -318.73 39.63 -317.21 39.13 C-315.52 37.48 -313.86 35.81 -312.21 34.13 C-305.02 27.55 -296.63 23.96 -286.96 24.06 C-285.35 24.08 -285.35 24.08 -283.7 24.09 C-282.88 24.1 -282.06 24.12 -281.21 24.13 C-281.21 24.79 -281.21 25.45 -281.21 26.13 C-280.5 26.31 -279.79 26.49 -279.05 26.68 C-273.54 28.12 -268.38 29.72 -263.21 32.13 C-263.21 32.79 -263.21 33.45 -263.21 34.13 C-262.22 34.13 -261.23 34.13 -260.21 34.13 C-259.55 34.79 -258.89 35.45 -258.21 36.13 C-257.55 36.46 -256.89 36.79 -256.21 37.13 C-254.21 38.13 -254.21 38.13 -252.21 40.13 C-250.23 40.84 -248.23 41.51 -246.21 42.13 C-246.21 42.79 -246.21 43.45 -246.21 44.13 C-245.47 44.22 -244.73 44.32 -243.96 44.42 C-240.83 45.23 -239.58 46.27 -237.28 48.5 C-234.06 51.47 -231.23 53.42 -227.21 55.13 C-227.21 55.79 -227.21 56.45 -227.21 57.13 C-224.24 57.13 -221.27 57.13 -218.21 57.13 C-218.21 56.47 -218.21 55.81 -218.21 55.13 C-216.56 54.8 -214.91 54.47 -213.21 54.13 C-213.21 53.47 -213.21 52.81 -213.21 52.13 C-211.23 51.8 -209.25 51.47 -207.21 51.13 C-207.21 50.47 -207.21 49.81 -207.21 49.13 C-205.23 48.8 -203.25 48.47 -201.21 48.13 C-201.21 47.8 -201.21 47.47 -201.21 47.13 C-197.58 46.14 -193.95 45.15 -190.21 44.13 C-190.21 43.47 -190.21 42.81 -190.21 42.13 C-188.93 42 -187.66 41.88 -186.34 41.75 C-182.86 41.44 -182.86 41.44 -180.21 39.13 C-178.26 38.35 -178.26 38.35 -175.96 37.63 C-175.16 37.37 -174.36 37.11 -173.53 36.85 C-172.77 36.61 -172 36.37 -171.21 36.13 C-167.71 35.02 -165.28 34.17 -162.21 32.13 C-160.17 31.71 -160.17 31.71 -158.03 31.5 C-156.14 31.32 -156.14 31.32 -154.21 31.13 C-154.21 30.47 -154.21 29.81 -154.21 29.13 C-153.43 28.98 -152.65 28.84 -151.84 28.69 C-149.25 28.25 -149.25 28.25 -147.21 27.13 C-144.91 26.86 -142.61 26.68 -140.31 26.51 C-138 26.29 -138 26.29 -136.21 24.13 C-131.43 22.53 -126.59 21.59 -121.65 20.63 C-116 19.74 -116 19.74 -111.21 17.13 C-108.7 16.84 -106.18 16.68 -103.66 16.51 C-100.96 16.26 -100.96 16.26 -98.21 14.13 C-96.17 13.71 -96.17 13.71 -94.03 13.5 C-92.77 13.38 -91.51 13.25 -90.21 13.13 C-90.21 12.8 -90.21 12.47 -90.21 12.13 C-89.14 12.08 -88.07 12.03 -86.97 11.98 C-85.57 11.9 -84.17 11.83 -82.78 11.75 C-82.07 11.72 -81.36 11.69 -80.63 11.66 C-78.82 11.55 -77.01 11.35 -75.21 11.13 C-74.88 10.47 -74.55 9.81 -74.21 9.13 C-67.57 6.91 -60.38 6.83 -53.46 6.41 C-50.23 6.13 -47.4 5.51 -44.3 4.6 C-39.7 3.55 -34.91 3.42 -30.21 3.13 C-30.21 2.8 -30.21 2.47 -30.21 2.13 C-29.19 2.09 -29.19 2.09 -28.15 2.05 C-25.07 1.94 -21.98 1.81 -18.9 1.69 C-17.83 1.65 -16.76 1.61 -15.65 1.57 C-14.62 1.53 -13.6 1.49 -12.54 1.44 C-11.59 1.41 -10.64 1.37 -9.66 1.33 C-6.29 1.05 -3.44 0 0 0 Z M432.79 71.13 C433.79 73.13 433.79 73.13 433.79 73.13 Z M-467.21 255.13 C-467.54 255.79 -467.87 256.45 -468.21 257.13 C-467.55 257.13 -466.89 257.13 -466.21 257.13 C-466.54 256.47 -466.87 255.81 -467.21 255.13 Z M605.79 944.13 C605.79 945.12 605.79 946.11 605.79 947.13 C606.78 946.8 607.77 946.47 608.79 946.13 C608.79 945.47 608.79 944.81 608.79 944.13 C607.8 944.13 606.81 944.13 605.79 944.13 Z M545.79 1037.13 C546.79 1039.13 546.79 1039.13 546.79 1039.13 Z M538.79 1046.13 C539.12 1046.79 539.45 1047.45 539.79 1048.13 C540.12 1047.47 540.45 1046.81 540.79 1046.13 C540.13 1046.13 539.47 1046.13 538.79 1046.13 Z M528.79 1056.13 C529.79 1058.13 529.79 1058.13 529.79 1058.13 Z M439.79 1143.13 C440.79 1145.13 440.79 1145.13 440.79 1145.13 Z M398.79 1172.13 C399.79 1174.13 399.79 1174.13 399.79 1174.13 Z M-288.21 1185.13 C-287.21 1187.13 -287.21 1187.13 -287.21 1187.13 Z M-101.21 1261.13 C-101.54 1261.79 -101.87 1262.45 -102.21 1263.13 C-99.9 1263.13 -97.59 1263.13 -95.21 1263.13 C-95.21 1262.8 -95.21 1262.47 -95.21 1262.13 C-98.18 1261.63 -98.18 1261.63 -101.21 1261.13 Z M-61.21 1270.13 C-61.21 1270.46 -61.21 1270.79 -61.21 1271.13 C-59.23 1271.13 -57.25 1271.13 -55.21 1271.13 C-55.21 1270.8 -55.21 1270.47 -55.21 1270.13 C-57.19 1270.13 -59.17 1270.13 -61.21 1270.13 Z M-30.21 1275.13 C-30.21 1275.46 -30.21 1275.79 -30.21 1276.13 C-24.27 1276.13 -18.33 1276.13 -12.21 1276.13 C-12.21 1275.8 -12.21 1275.47 -12.21 1275.13 C-18.15 1275.13 -24.09 1275.13 -30.21 1275.13 Z M106.79 1275.13 C106.79 1275.46 106.79 1275.79 106.79 1276.13 C111.74 1276.13 116.69 1276.13 121.79 1276.13 C121.79 1275.8 121.79 1275.47 121.79 1275.13 C116.84 1275.13 111.89 1275.13 106.79 1275.13 Z " fill="#555352" transform="translate(593.212890625,-0.126983642578125)"/>
<path d="M0 0 C1.62 0.01 1.62 0.01 3.27 0.03 C4.09 0.04 4.91 0.05 5.75 0.06 C5.75 0.72 5.75 1.38 5.75 2.06 C6.46 2.24 7.18 2.43 7.91 2.61 C13.42 4.06 18.58 5.65 23.75 8.06 C23.75 8.72 23.75 9.38 23.75 10.06 C24.74 10.06 25.73 10.06 26.75 10.06 C27.41 10.72 28.07 11.38 28.75 12.06 C29.41 12.39 30.07 12.72 30.75 13.06 C32.75 14.06 32.75 14.06 34.75 16.06 C36.73 16.78 38.73 17.45 40.75 18.06 C40.75 18.72 40.75 19.38 40.75 20.06 C41.49 20.16 42.24 20.25 43 20.35 C46.14 21.16 47.39 22.21 49.69 24.44 C52.9 27.41 55.73 29.36 59.75 31.06 C59.75 31.72 59.75 32.38 59.75 33.06 C60.31 33.1 60.86 33.15 61.44 33.19 C64.29 34.27 65.45 35.98 67.29 38.34 C68.85 40.18 70.52 41.67 72.36 43.23 C92.43 60.56 108.19 80.69 121.88 103.31 C122.23 103.9 122.58 104.48 122.95 105.08 C125.25 108.97 127.02 112.9 128.75 117.06 C129.42 118.42 130.11 119.78 130.81 121.12 C132.11 123.64 132.95 125.74 133.75 128.5 C134.45 131.19 134.45 131.19 136.59 131.87 C139.42 132.12 140.1 131.43 142.31 129.69 C149.16 124.82 156.86 121.6 164.46 118.12 C166.48 117.19 168.48 116.25 170.48 115.29 C176.29 112.55 182.09 110.11 188.14 107.99 C190.67 107.09 193.14 106.09 195.62 105.06 C205.82 100.95 216.52 98.24 227.15 95.51 C229.12 95 231.08 94.49 233.05 93.97 C263.77 86.01 294.72 82.78 326.38 82.75 C327.36 82.75 328.34 82.74 329.35 82.74 C332.17 82.73 334.98 82.74 337.79 82.76 C338.64 82.76 339.48 82.76 340.35 82.76 C341.14 82.77 341.92 82.78 342.73 82.79 C343.42 82.79 344.1 82.8 344.8 82.8 C347.1 83.11 348.74 83.93 350.75 85.06 C347.72 85.94 344.99 86.2 341.85 86.24 C340.87 86.25 339.9 86.26 338.9 86.28 C337.34 86.29 337.34 86.29 335.75 86.31 C333.54 86.34 331.33 86.37 329.13 86.41 C325.65 86.46 322.17 86.5 318.69 86.54 C315.33 86.58 311.98 86.63 308.62 86.68 C307.58 86.69 306.53 86.7 305.46 86.71 C304.49 86.73 303.52 86.74 302.53 86.76 C301.25 86.77 301.25 86.77 299.94 86.79 C297.46 86.93 297.46 86.93 294.75 89.06 C292.53 89.97 290.3 90.84 288.06 91.69 C270.97 98.39 254.29 107.15 240.2 119.02 C237.88 120.96 235.51 122.81 233.12 124.66 C227.41 129.22 222.27 134.25 217.12 139.44 C216.24 140.32 215.35 141.2 214.43 142.11 C208.76 147.8 203.66 153.71 198.75 160.06 C197.65 161.43 196.54 162.8 195.43 164.17 C179.11 184.58 165.92 206.86 153.64 229.88 C153.14 230.81 152.64 231.73 152.13 232.68 C151.19 234.43 150.27 236.19 149.35 237.95 C148.93 238.72 148.52 239.5 148.09 240.3 C147.73 240.98 147.38 241.66 147.01 242.36 C145.46 244.45 144.19 245.21 141.75 246.06 C138.97 245.09 138.97 245.09 135.81 243.44 C111.67 231.61 85.65 231.3 60.31 239.12 C47.36 243.7 34.94 250.85 24.75 260.06 C23.93 260.79 23.12 261.51 22.27 262.26 C4.28 279.14 -7.56 304.9 -8.59 329.54 C-9.03 357.23 -0.89 384.73 18.75 405.06 C36.92 422.15 58.16 432.2 82.75 436.06 C82.91 442.45 82.39 448.27 81.21 454.54 C80.88 456.4 80.54 458.26 80.21 460.12 C79.95 461.58 79.95 461.58 79.67 463.07 C62.56 558.17 59.55 655.49 54.38 755.51 C46.73 903.69 46.73 903.69 38.75 970.06 C38.6 971.29 38.6 971.29 38.45 972.55 C31.59 1029.4 22.12 1087.88 -1.28 1140.5 C-3.27 1145.01 -4.9 1149.58 -6.3 1154.3 C-7.25 1156.06 -7.25 1156.06 -9.36 1156.83 C-10.29 1156.94 -10.29 1156.94 -11.25 1157.06 C-11.58 1156.4 -11.91 1155.74 -12.25 1155.06 C-12.91 1155.39 -13.57 1155.72 -14.25 1156.06 C-14.25 1155.4 -14.25 1154.74 -14.25 1154.06 C-15.24 1153.73 -16.23 1153.4 -17.25 1153.06 C-18.97 1151.92 -20.67 1150.75 -22.31 1149.5 C-24.19 1148.02 -24.19 1148.02 -26.25 1147.06 C-26.25 1146.4 -26.25 1145.74 -26.25 1145.06 C-27.24 1145.39 -28.23 1145.72 -29.25 1146.06 C-29.25 1145.4 -29.25 1144.74 -29.25 1144.06 C-31.37 1142.94 -31.37 1142.94 -34.25 1142.06 C-34.94 1140 -34.94 1140 -35.25 1138.06 C-36.57 1138.39 -37.89 1138.72 -39.25 1139.06 C-39.48 1138.42 -39.7 1137.78 -39.94 1137.12 C-41.08 1134.79 -41.08 1134.79 -43.75 1134.5 C-44.57 1134.36 -45.4 1134.21 -46.25 1134.06 C-48.25 1131.06 -48.25 1131.06 -48.25 1130.06 C-49.57 1129.4 -50.89 1128.74 -52.25 1128.06 C-52.25 1127.4 -52.25 1126.74 -52.25 1126.06 C-55.64 1124.55 -55.64 1124.55 -59.25 1124.06 C-60.6 1122.41 -61.94 1120.75 -63.25 1119.06 C-63.91 1118.73 -64.57 1118.4 -65.25 1118.06 C-65.25 1117.4 -65.25 1116.74 -65.25 1116.06 C-66.24 1116.39 -67.23 1116.72 -68.25 1117.06 C-68.58 1116.07 -68.91 1115.08 -69.25 1114.06 C-71.75 1112.84 -71.75 1112.84 -74.25 1112.06 C-74.25 1111.4 -74.25 1110.74 -74.25 1110.06 C-74.91 1110.06 -75.57 1110.06 -76.25 1110.06 C-77.32 1108.9 -78.33 1107.68 -79.31 1106.44 C-81.82 1103.47 -84.12 1101.33 -87.44 1099.31 C-92.43 1096.23 -96.26 1092.25 -100.26 1088.02 C-101.56 1086.67 -102.9 1085.36 -104.25 1084.06 C-104.91 1084.06 -105.57 1084.06 -106.25 1084.06 C-107.88 1082.69 -107.88 1082.69 -109.25 1081.06 C-109.25 1080.4 -109.25 1079.74 -109.25 1079.06 C-109.91 1078.73 -110.57 1078.4 -111.25 1078.06 C-112.59 1076.48 -113.93 1074.9 -115.27 1073.31 C-117.72 1070.53 -120.28 1067.88 -122.88 1065.25 C-123.8 1064.32 -124.72 1063.38 -125.66 1062.42 C-127.86 1060.42 -129.53 1059.17 -132.25 1058.06 C-132.25 1057.4 -132.25 1056.74 -132.25 1056.06 C-132.91 1055.73 -133.57 1055.4 -134.25 1055.06 C-138.87 1050.72 -143.31 1046.03 -147.25 1041.06 C-147.25 1040.4 -147.25 1039.74 -147.25 1039.06 C-147.91 1039.06 -148.57 1039.06 -149.25 1039.06 C-149.58 1037.74 -149.91 1036.42 -150.25 1035.06 C-150.91 1035.06 -151.57 1035.06 -152.25 1035.06 C-152.25 1034.4 -152.25 1033.74 -152.25 1033.06 C-152.91 1032.73 -153.57 1032.4 -154.25 1032.06 C-155.24 1031.01 -156.2 1029.92 -157.12 1028.81 C-157.92 1027.87 -157.92 1027.87 -158.74 1026.9 C-159.95 1025.43 -161.14 1023.94 -162.31 1022.44 C-164.95 1019.21 -167.83 1016.28 -171 1013.56 C-172.69 1011.53 -172.9 1009.64 -173.25 1007.06 C-173.91 1007.06 -174.57 1007.06 -175.25 1007.06 C-175.25 1006.4 -175.25 1005.74 -175.25 1005.06 C-175.91 1004.73 -176.57 1004.4 -177.25 1004.06 C-180.25 1000.49 -180.25 1000.49 -180.25 998.06 C-180.91 998.06 -181.57 998.06 -182.25 998.06 C-182.25 997.4 -182.25 996.74 -182.25 996.06 C-182.91 996.06 -183.57 996.06 -184.25 996.06 C-188.07 989.44 -188.07 989.44 -189.38 986.69 C-190.15 984.87 -190.15 984.87 -192.25 984.06 C-192.25 983.4 -192.25 982.74 -192.25 982.06 C-192.91 982.06 -193.57 982.06 -194.25 982.06 C-194.25 981.07 -194.25 980.08 -194.25 979.06 C-194.91 979.06 -195.57 979.06 -196.25 979.06 C-196.83 978.03 -197.41 977 -198 975.94 C-199.41 973.46 -200.88 971.09 -202.5 968.75 C-204.25 966.06 -204.25 966.06 -204.25 964.06 C-204.91 963.73 -205.57 963.4 -206.25 963.06 C-207.43 961.64 -207.43 961.64 -208.69 959.88 C-209.3 959.02 -209.3 959.02 -209.93 958.14 C-211.58 955.54 -212.88 952.82 -214.25 950.06 C-215.74 947.34 -217.28 944.64 -218.81 941.94 C-219.61 940.54 -220.4 939.14 -221.19 937.74 C-221.71 936.83 -221.71 936.83 -222.24 935.89 C-222.96 934.58 -223.63 933.25 -224.25 931.9 C-225.12 929.89 -225.12 929.89 -227.25 929.06 C-227.6 927.73 -227.94 926.4 -228.25 925.06 C-229.24 923.58 -229.24 923.58 -230.25 922.06 C-230.25 920.74 -230.25 919.42 -230.25 918.06 C-230.91 918.06 -231.57 918.06 -232.25 918.06 C-242.69 897.19 -242.69 897.19 -243.93 894.7 C-244.86 892.83 -245.81 890.97 -246.76 889.12 C-249.52 883.7 -252.06 878.3 -254.25 872.62 C-255.37 869.75 -256.56 866.91 -257.75 864.06 C-259.62 859.59 -261.45 855.1 -263.23 850.59 C-263.93 848.86 -264.65 847.15 -265.4 845.44 C-268.47 838.4 -270.87 831.25 -273.11 823.91 C-274.22 820.26 -275.37 816.66 -276.74 813.1 C-278.48 808.55 -279.87 803.92 -281.25 799.25 C-281.5 798.42 -281.75 797.6 -282 796.75 C-285.11 786.3 -287.84 775.81 -290.25 765.19 C-290.5 764.11 -290.75 763.02 -291 761.91 C-291.5 759.73 -292 757.55 -292.49 755.37 C-293.27 751.98 -294.06 748.59 -294.84 745.21 C-297.62 733.19 -299.59 721.15 -301.19 708.92 C-301.81 704.21 -302.49 699.54 -303.38 694.88 C-304.46 688.78 -304.67 682.65 -304.91 676.47 C-304.94 675.68 -304.97 674.9 -305 674.09 C-305.03 673.39 -305.05 672.68 -305.08 671.96 C-305.2 669.84 -305.2 669.84 -306.25 667.06 C-306.34 665.67 -306.38 664.27 -306.38 662.88 C-306.38 662.02 -306.38 661.17 -306.39 660.29 C-306.38 659.36 -306.38 658.43 -306.38 657.47 C-306.38 656.49 -306.38 655.5 -306.38 654.49 C-306.39 651.23 -306.39 647.96 -306.38 644.7 C-306.38 642.44 -306.38 640.17 -306.39 637.91 C-306.39 633.15 -306.39 628.4 -306.38 623.64 C-306.37 617.55 -306.38 611.47 -306.38 605.38 C-306.39 600.7 -306.39 596.01 -306.38 591.33 C-306.38 589.09 -306.38 586.84 -306.39 584.6 C-306.39 581.46 -306.38 578.32 -306.38 575.17 C-306.38 574.25 -306.38 573.33 -306.39 572.37 C-306.37 567.49 -306.05 562.88 -305.25 558.06 C-305.12 556.45 -305.01 554.84 -304.93 553.22 C-304.89 552.39 -304.85 551.55 -304.81 550.69 C-304.77 549.85 -304.73 549 -304.69 548.12 C-304.64 547.25 -304.6 546.38 -304.56 545.47 C-304.45 543.34 -304.35 541.2 -304.25 539.06 C-303.92 539.06 -303.59 539.06 -303.25 539.06 C-303.05 537.27 -303.05 537.27 -302.85 535.45 C-302.67 533.88 -302.49 532.32 -302.31 530.75 C-302.23 529.96 -302.14 529.18 -302.05 528.37 C-301.92 527.23 -301.92 527.23 -301.79 526.07 C-301.71 525.38 -301.63 524.68 -301.55 523.96 C-301.25 522.06 -301.25 522.06 -300.25 519.06 C-300.02 516.67 -299.84 514.27 -299.69 511.88 C-299.6 510.6 -299.52 509.33 -299.43 508.02 C-299.34 506.56 -299.34 506.56 -299.25 505.06 C-298.92 505.06 -298.59 505.06 -298.25 505.06 C-297.92 501.1 -297.59 497.14 -297.25 493.06 C-296.59 493.06 -295.93 493.06 -295.25 493.06 C-294.92 488.44 -294.59 483.82 -294.25 479.06 C-293.92 479.06 -293.59 479.06 -293.25 479.06 C-291.25 470.27 -291.25 470.27 -289.75 461.38 C-289.25 458.06 -289.25 458.06 -288.25 456.06 C-287.92 455.07 -287.59 454.08 -287.25 453.06 C-286.25 450.06 -286.25 450.06 -285.25 448.06 C-285.1 446.67 -284.98 445.27 -284.88 443.88 C-284.43 439.38 -283.16 436.13 -281.25 432.06 C-280.88 430.74 -280.54 429.41 -280.25 428.06 C-279.13 423.94 -277.89 420 -276.25 416.06 C-274.71 411.45 -273.38 406.79 -272.25 402.06 C-271.59 402.06 -270.93 402.06 -270.25 402.06 C-270.2 401.45 -270.15 400.83 -270.1 400.2 C-270.03 399.39 -269.95 398.58 -269.88 397.75 C-269.81 396.95 -269.74 396.15 -269.66 395.32 C-269.25 393.06 -269.25 393.06 -267.25 390.06 C-265.58 386.43 -264.8 383.01 -264.25 379.06 C-263.59 379.06 -262.93 379.06 -262.25 379.06 C-261.92 377.08 -261.59 375.1 -261.25 373.06 C-260.59 373.06 -259.93 373.06 -259.25 373.06 C-259.29 372.3 -259.33 371.54 -259.38 370.75 C-259.25 368.06 -259.25 368.06 -257.25 365.06 C-255.96 362.1 -254.95 359.21 -254.25 356.06 C-253.59 356.06 -252.93 356.06 -252.25 356.06 C-252.25 354.74 -252.25 353.42 -252.25 352.06 C-251.59 351.73 -250.93 351.4 -250.25 351.06 C-250.13 350.15 -250 349.25 -249.88 348.31 C-249.15 344.52 -247.67 343.01 -245.25 340.06 C-245 338.83 -245 338.83 -244.75 337.56 C-244.09 334.28 -242.32 332.65 -240.25 330.06 C-240.08 329.24 -239.92 328.41 -239.75 327.56 C-239.09 324.28 -237.32 322.65 -235.25 320.06 C-234.59 317.54 -234.59 317.54 -234.25 315.06 C-233.14 312.47 -232.27 311.08 -230.25 309.06 C-229.55 307.75 -228.89 306.41 -228.25 305.06 C-226.25 301.06 -224.25 297.06 -222.25 293.06 C-221.59 293.06 -220.93 293.06 -220.25 293.06 C-218.93 289.76 -217.61 286.46 -216.25 283.06 C-215.59 283.06 -214.93 283.06 -214.25 283.06 C-214.16 282.52 -214.06 281.98 -213.96 281.42 C-213.04 278.36 -211.53 276 -209.81 273.31 C-209.2 272.33 -208.58 271.34 -207.94 270.33 C-207.38 269.58 -206.83 268.83 -206.25 268.06 C-205.59 268.06 -204.93 268.06 -204.25 268.06 C-204.15 267.3 -204.04 266.54 -203.94 265.75 C-203.18 262.8 -202.38 262.1 -200.25 260.06 C-199.54 257.96 -199.54 257.96 -199.25 256.06 C-198.59 256.06 -197.93 256.06 -197.25 256.06 C-196.92 255.07 -196.59 254.08 -196.25 253.06 C-195.59 253.06 -194.93 253.06 -194.25 253.06 C-194.17 252.55 -194.08 252.03 -194 251.5 C-192.52 246.69 -189.58 241.85 -186.25 238.06 C-185.59 238.06 -184.93 238.06 -184.25 238.06 C-183.97 236.52 -183.97 236.52 -183.69 234.94 C-182.54 230.81 -180.25 228.94 -176.91 226.42 C-174.98 224.98 -174.98 224.98 -173.25 222.06 C-172.78 221.61 -172.3 221.16 -171.81 220.69 C-170.09 219.03 -170.09 219.03 -168.75 216.44 C-167.25 214.06 -167.25 214.06 -164.25 213.06 C-164.25 211.74 -164.25 210.42 -164.25 209.06 C-163.59 209.06 -162.93 209.06 -162.25 209.06 C-161.94 208.26 -161.94 208.26 -161.63 207.44 C-159.33 203.47 -155.83 200.6 -152.51 197.48 C-149.46 194.79 -149.46 194.79 -147.87 191.19 C-146.94 188.02 -144.97 186.41 -142.64 184.08 C-142.16 183.6 -141.69 183.12 -141.19 182.62 C-139.61 181.03 -138.02 179.45 -136.43 177.88 C-135.32 176.77 -134.21 175.66 -133.11 174.56 C-130.79 172.24 -128.47 169.93 -126.14 167.62 C-123.17 164.67 -120.21 161.71 -117.25 158.74 C-114.97 156.46 -112.68 154.17 -110.39 151.9 C-109.3 150.81 -108.2 149.72 -107.11 148.62 C-105.58 147.09 -104.04 145.57 -102.51 144.04 C-101.63 143.18 -100.76 142.31 -99.86 141.41 C-97.15 138.97 -94.31 137.05 -91.25 135.06 C-88.14 131.84 -87.32 128.35 -86.25 124.06 C-85.59 124.06 -84.93 124.06 -84.25 124.06 C-84.1 122.37 -84.1 122.37 -83.94 120.64 C-83.33 115.8 -81.87 111.4 -80.25 106.81 C-79.71 105.25 -79.17 103.68 -78.62 102.11 C-78.39 101.43 -78.15 100.74 -77.9 100.04 C-77.25 98.07 -76.73 96.09 -76.25 94.06 C-75.59 94.06 -74.93 94.06 -74.25 94.06 C-74.25 92.41 -74.25 90.76 -74.25 89.06 C-73.59 89.06 -72.93 89.06 -72.25 89.06 C-71.92 86.42 -71.59 83.78 -71.25 81.06 C-70.59 81.06 -69.93 81.06 -69.25 81.06 C-69.13 80.38 -69 79.7 -68.88 79 C-68.16 75.63 -67.22 72.36 -66.25 69.06 C-65.59 69.06 -64.93 69.06 -64.25 69.06 C-64.25 67.41 -64.25 65.76 -64.25 64.06 C-63.59 64.06 -62.93 64.06 -62.25 64.06 C-61.92 62.41 -61.59 60.76 -61.25 59.06 C-60.59 59.06 -59.93 59.06 -59.25 59.06 C-59.25 57.41 -59.25 55.76 -59.25 54.06 C-58.59 54.06 -57.93 54.06 -57.25 54.06 C-56.92 52.41 -56.59 50.76 -56.25 49.06 C-55.59 49.06 -54.93 49.06 -54.25 49.06 C-54.33 48.32 -54.41 47.58 -54.5 46.81 C-54.17 43.19 -52.89 42.48 -50.25 40.06 C-49.3 38.69 -48.35 37.3 -47.45 35.9 C-43.39 29.66 -39.07 23.73 -34.25 18.06 C-33.92 17.4 -33.59 16.74 -33.25 16.06 C-31.76 15.57 -31.76 15.57 -30.25 15.06 C-28.56 13.42 -26.9 11.75 -25.25 10.06 C-18.06 3.49 -9.67 -0.11 0 0 Z M-180.25 231.06 C-180.58 231.72 -180.91 232.38 -181.25 233.06 C-180.59 233.06 -179.93 233.06 -179.25 233.06 C-179.58 232.4 -179.91 231.74 -180.25 231.06 Z " fill="#423E42" transform="translate(306.25,23.9375)"/>
<path d="M0 0 C3.74 1.51 6.27 3.07 8.77 6.18 C11.99 10.05 15.48 13.59 19.06 17.12 C19.96 18.02 19.96 18.02 20.88 18.93 C22.05 20.09 23.22 21.25 24.39 22.41 C26.6 24.6 28.8 26.8 31 29 C32.13 30.13 32.13 30.13 33.28 31.28 C40 38 40 38 42.45 40.46 C44.18 42.18 45.92 43.9 47.68 45.61 C48.55 46.46 49.42 47.31 50.31 48.19 C51.2 49.05 52.08 49.91 52.99 50.79 C55 53 55 53 55 55 C55.66 55 56.32 55 57 55 C58.48 56.69 58.48 56.69 60.19 59 C64.29 64.42 68.56 69.63 73.44 74.38 C75 76 75 76 75 78 C75.66 78 76.32 78 77 78 C78.01 79.66 79.01 81.33 80 83 C80.98 84.18 81.98 85.35 83 86.5 C85.37 89.18 87.16 91.93 89 95 C90.48 95.99 90.48 95.99 92 97 C92 97.99 92 98.98 92 100 C92.66 100 93.32 100 94 100 C97 104.38 97 104.38 97 107 C97.66 107 98.32 107 99 107 C100.04 108.4 100.04 108.4 101.19 110.38 C103.77 114.71 106.66 118.74 109.64 122.8 C111 125 111 125 111 128 C111.99 128.33 112.98 128.66 114 129 C116 132 116 132 116 135 C116.66 135 117.32 135 118 135 C118.47 135.89 118.47 135.89 118.95 136.79 C120.9 140.38 122.75 143.69 125.31 146.88 C127 149 127 149 127 152 C127.66 152.33 128.32 152.66 129 153 C133 159.35 133 159.35 133 163 C133.66 163 134.32 163 135 163 C135.33 164.65 135.66 166.3 136 168 C136.66 168 137.32 168 138 168 C138 169.65 138 171.3 138 173 C138.99 173.33 139.98 173.66 141 174 C143 177 143 177 143 181 C143.66 181 144.32 181 145 181 C145.52 182.04 146.04 183.08 146.57 184.15 C146.91 184.82 147.25 185.49 147.59 186.18 C148.32 187.65 149.06 189.12 149.79 190.58 C151.38 193.78 152.99 196.98 154.64 200.15 C155.09 201.01 155.54 201.87 156 202.75 C156.39 203.49 156.78 204.22 157.19 204.98 C158 207 158 207 158 211 C158.66 211 159.32 211 160 211 C160.33 213.31 160.66 215.62 161 218 C161.99 218.33 162.98 218.66 164 219 C164.39 220.32 164.71 221.66 165 223 C165.98 225.01 166.98 227.01 168 229 C169.98 233.19 171.42 236.33 171 241 C171.99 241.33 172.98 241.66 174 242 C173.67 243.32 173.34 244.64 173 246 C173.66 246 174.32 246 175 246 C175.51 247.25 176.01 248.5 176.5 249.75 C176.78 250.45 177.06 251.14 177.34 251.86 C178 254 178 254 178 258 C178.66 258 179.32 258 180 258 C180.27 258.84 180.27 258.84 180.55 259.69 C181.82 263.53 183.11 267.35 184.56 271.12 C185.92 274.7 186.97 278.32 188 282 C188.45 283.34 188.91 284.67 189.38 286 C190.99 290.76 192.25 295.61 193.51 300.47 C194.65 304.78 195.95 308.99 197.41 313.2 C198.14 315.44 198.59 317.69 199 320 C199.33 320.99 199.66 321.98 200 323 C200.32 324.34 200.62 325.68 200.9 327.02 C201.07 327.79 201.24 328.57 201.41 329.37 C201.76 330.99 202.11 332.6 202.45 334.22 C203.4 338.59 204.58 342.75 206 347 C206.31 349.13 206.31 349.13 206.44 351.12 C206.76 354.68 207.46 357.94 208.4 361.38 C210.2 368.44 211.22 375.54 212.19 382.75 C212.36 384.03 212.54 385.31 212.72 386.63 C213.16 389.75 213.58 392.88 214 396 C214.33 396 214.66 396 215 396 C214.98 397.05 214.96 398.1 214.94 399.19 C214.87 402.75 214.87 402.75 215.48 405.18 C216.34 409.85 216.36 414.58 216.52 419.32 C216.55 420.09 216.59 420.86 216.62 421.65 C216.65 422.34 216.67 423.03 216.7 423.75 C216.92 426.1 216.92 426.1 218 428.52 C219.31 433.07 219.28 437.24 219.26 441.95 C219.26 443.43 219.26 443.43 219.27 444.94 C219.28 448.19 219.27 451.44 219.27 454.69 C219.27 456.95 219.27 459.22 219.27 461.48 C219.27 466.22 219.27 470.96 219.26 475.7 C219.25 481.78 219.26 487.85 219.27 493.92 C219.28 498.59 219.27 503.27 219.27 507.94 C219.27 510.18 219.27 512.42 219.27 514.66 C219.28 517.79 219.27 520.92 219.26 524.05 C219.26 524.97 219.27 525.9 219.27 526.85 C219.24 531.66 218.8 535.47 217 540 C216.68 542.21 216.68 542.21 216.66 544.31 C216.63 545.08 216.6 545.84 216.57 546.63 C216.53 547.8 216.53 547.8 216.5 549 C216.35 554.45 215.81 558.81 214 564 C213.79 566.22 213.64 568.46 213.56 570.69 C212.87 583.05 210.91 595.22 207.68 607.17 C206.92 610.31 206.45 613.43 206 616.62 C205.31 621.46 204.23 625.93 202.73 630.57 C201.69 634.02 201.06 637.52 200.43 641.07 C200 643 200 643 199 644 C198.34 647.14 197.75 650.29 197.19 653.45 C196.55 656.88 195.96 659.05 194 662 C193.27 664.6 192.61 667.18 192 669.81 C190.86 674.63 189.63 679.32 188 684 C187.75 684.76 187.51 685.52 187.25 686.31 C186.12 689.82 184.92 693.18 183.44 696.56 C181.85 700.36 180.91 703.99 180 708 C179.34 708 178.68 708 178 708 C177.88 708.68 177.75 709.36 177.62 710.06 C176.91 713.43 175.97 716.7 175 720 C174.34 720 173.68 720 173 720 C173.33 721.32 173.66 722.64 174 724 C173.01 724.33 172.02 724.66 171 725 C170.9 726.22 170.79 727.43 170.69 728.69 C170.22 732.46 169.14 734.83 167 738 C166.31 739.66 165.65 741.33 165 743 C164.13 745.11 163.25 747.21 162.38 749.31 C161.93 750.38 161.48 751.45 161.02 752.55 C160.69 753.36 160.35 754.17 160 755 C159.34 755 158.68 755 158 755 C157.88 755.72 157.75 756.44 157.62 757.19 C157.01 759.96 156.12 762.4 155 765 C154.34 765 153.68 765 153 765 C152.88 765.72 152.75 766.44 152.62 767.19 C152.01 769.96 151.12 772.4 150 775 C149.34 775 148.68 775 148 775 C147.88 775.72 147.75 776.44 147.62 777.19 C147.01 779.96 146.12 782.4 145 785 C144.34 785 143.68 785 143 785 C142.9 785.71 142.79 786.42 142.69 787.14 C141.91 790.38 140.64 792.8 139 795.69 C138.2 797.12 138.2 797.12 137.38 798.57 C136.92 799.37 136.47 800.18 136 801 C135.67 801.66 135.34 802.32 135 803 C134.34 803 133.68 803 133 803 C132.94 803.68 132.88 804.36 132.81 805.06 C131.88 808.45 130.37 810.46 128.27 813.22 C126.8 815.19 126.8 815.19 125.31 818.38 C124 821 124 821 122 822 C122.19 821.43 122.39 820.85 122.58 820.26 C123.08 817.57 122.64 816.33 121.65 813.81 C120.01 809.23 119.19 804.83 118.57 800.02 C118.46 799.17 118.34 798.33 118.22 797.47 C117.85 794.73 117.49 791.99 117.12 789.25 C116.86 787.32 116.6 785.39 116.34 783.46 C115.81 779.53 115.28 775.6 114.76 771.67 C114.07 766.52 113.38 761.38 112.68 756.24 C111.85 750.18 111.03 744.12 110.22 738.06 C109.39 731.9 108.56 725.75 107.72 719.6 C107.29 716.46 106.86 713.32 106.44 710.19 C106.33 709.42 106.23 708.66 106.12 707.87 C105.01 699.66 103.92 691.45 102.9 683.23 C102.81 682.52 102.73 681.81 102.64 681.08 C102.23 677.78 101.83 674.47 101.43 671.16 C100.6 664.34 99.63 657.55 98.54 650.76 C97.12 642.01 95.95 633.24 94.87 624.44 C93.34 612.17 91.75 599.91 89.88 587.69 C88.56 579.12 87.45 570.55 86.5 561.94 C85.43 552.24 84.07 542.62 82.55 532.99 C81.1 523.82 79.85 514.64 78.64 505.44 C78.47 504.16 78.31 502.88 78.13 501.57 C78.05 500.9 77.96 500.24 77.87 499.56 C76.74 491.01 75.56 482.47 74.39 473.93 C72.54 460.44 70.72 446.95 69 433.44 C67.36 420.51 65.56 407.62 63.74 394.72 C61.69 380.16 59.75 365.58 57.88 351 C56.17 337.77 54.4 324.57 52.39 311.38 C51.03 302.37 49.86 293.35 48.71 284.31 C47.03 271.13 45.27 257.97 43.5 244.81 C43.27 243.1 43.27 243.1 43.04 241.36 C41.2 227.73 39.33 214.11 37.35 200.5 C36.23 192.8 35.23 185.09 34.25 177.38 C29.93 143.28 23.91 109.47 17.25 75.75 C17.08 74.86 16.9 73.97 16.72 73.06 C14.37 61.42 11.27 49.96 8.2 38.5 C7.71 36.67 7.23 34.84 6.74 33.01 C5.99 30.2 5.24 27.4 4.48 24.59 C3.73 21.83 3 19.07 2.27 16.31 C2.04 15.48 1.81 14.64 1.57 13.79 C0.33 9.04 -0.24 4.91 0 0 Z M138 787 C138 787.99 138 788.98 138 790 C138.99 789.67 139.98 789.34 141 789 C141 788.34 141 787.68 141 787 C140.01 787 139.02 787 138 787 Z " fill="#FAD737" transform="translate(1061,157)"/>
<path d="M0 0 C0.99 0.99 0.99 0.99 2 2 C1.7 3.05 1.41 4.1 1.1 5.18 C-2.31 17.29 -5.46 29.47 -8.5 41.69 C-8.86 43.14 -8.86 43.14 -9.23 44.62 C-12.74 58.7 -16.17 72.77 -19 87 C-19.2 88.01 -19.41 89.02 -19.61 90.06 C-22.73 105.66 -25.48 121.3 -28 137 C-28.14 137.84 -28.27 138.68 -28.41 139.55 C-31.34 157.6 -33.95 175.67 -35.91 193.86 C-36.55 199.7 -37.41 205.43 -38.51 211.21 C-39.39 216.26 -39.93 221.35 -40.5 226.44 C-41.2 232.66 -41.94 238.85 -43.01 245.03 C-44.04 251.04 -44.73 257.06 -45.38 263.12 C-46.75 275.47 -48.58 287.72 -50.53 299.99 C-52.66 313.57 -54.44 327.18 -55.91 340.86 C-56.45 345.77 -57.07 350.61 -58 355.46 C-59.16 361.61 -59.84 367.78 -60.5 374 C-61.26 381.13 -62.17 388.15 -63.51 395.2 C-64.42 400.43 -64.94 405.72 -65.5 411 C-66.26 418.13 -67.17 425.15 -68.51 432.2 C-69.42 437.43 -69.94 442.72 -70.5 448 C-71.26 455.13 -72.17 462.15 -73.51 469.2 C-74.42 474.43 -74.94 479.72 -75.5 485 C-76.26 492.14 -77.17 499.17 -78.51 506.23 C-79.4 511.29 -79.93 516.39 -80.5 521.5 C-81.17 527.53 -81.86 533.51 -83 539.47 C-84.16 545.61 -84.84 551.79 -85.5 558 C-86.26 565.13 -87.17 572.15 -88.51 579.2 C-89.42 584.43 -89.94 589.72 -90.5 595 C-91.26 602.13 -92.17 609.15 -93.51 616.2 C-94.42 621.43 -94.94 626.72 -95.5 632 C-96.26 639.13 -97.17 646.15 -98.51 653.2 C-99.42 658.43 -99.94 663.72 -100.5 669 C-101.26 676.14 -102.17 683.18 -103.51 690.23 C-104.4 695.27 -104.93 700.35 -105.5 705.44 C-106.31 712.67 -107.28 719.82 -108.51 726.99 C-109.35 732.14 -109.91 737.32 -110.5 742.5 C-111.2 748.68 -111.94 754.83 -113 760.96 C-114.28 768.43 -115.05 775.94 -115.86 783.46 C-116.5 789.3 -117.33 794.99 -118.54 800.73 C-119.47 805.37 -119.9 810.08 -120.44 814.78 C-121 818 -121 818 -123 821 C-127.56 814.51 -131.34 807.53 -134.75 800.38 C-135.77 797.87 -135.77 797.87 -138 797 C-138.35 795.67 -138.69 794.34 -139 793 C-139.99 791.51 -139.99 791.51 -141 790 C-141 788.68 -141 787.36 -141 786 C-141.66 786 -142.32 786 -143 786 C-153.44 765.13 -153.44 765.13 -154.68 762.63 C-155.61 760.77 -156.56 758.91 -157.51 757.05 C-160.27 751.64 -162.81 746.23 -165 740.56 C-166.12 737.69 -167.31 734.84 -168.5 732 C-170.37 727.53 -172.2 723.04 -173.98 718.53 C-174.68 716.8 -175.4 715.08 -176.15 713.38 C-179.22 706.34 -181.62 699.19 -183.86 691.85 C-184.97 688.2 -186.12 684.6 -187.49 681.04 C-189.23 676.49 -190.62 671.85 -192 667.19 C-192.25 666.36 -192.5 665.54 -192.75 664.69 C-195.86 654.24 -198.59 643.75 -201 633.12 C-201.25 632.04 -201.5 630.96 -201.75 629.85 C-202.25 627.67 -202.75 625.49 -203.24 623.3 C-204.02 619.92 -204.81 616.53 -205.59 613.14 C-208.37 601.13 -210.34 589.08 -211.94 576.86 C-212.56 572.15 -213.24 567.48 -214.12 562.81 C-215.21 556.72 -215.42 550.58 -215.66 544.41 C-215.69 543.62 -215.72 542.84 -215.75 542.03 C-215.78 541.32 -215.8 540.62 -215.83 539.89 C-215.95 537.78 -215.95 537.78 -217 535 C-217.09 533.61 -217.13 532.21 -217.13 530.81 C-217.13 529.96 -217.13 529.11 -217.14 528.23 C-217.13 527.3 -217.13 526.37 -217.13 525.41 C-217.13 524.42 -217.13 523.44 -217.13 522.43 C-217.14 519.16 -217.14 515.9 -217.13 512.64 C-217.13 510.37 -217.13 508.11 -217.14 505.84 C-217.14 501.09 -217.14 496.33 -217.13 491.58 C-217.12 485.49 -217.13 479.4 -217.13 473.32 C-217.14 468.63 -217.14 463.95 -217.13 459.27 C-217.13 457.03 -217.13 454.78 -217.14 452.54 C-217.14 449.4 -217.13 446.25 -217.13 443.11 C-217.13 442.19 -217.13 441.26 -217.14 440.31 C-217.12 435.43 -216.8 430.82 -216 426 C-215.87 424.39 -215.76 422.78 -215.68 421.16 C-215.64 420.33 -215.6 419.49 -215.56 418.63 C-215.52 417.78 -215.48 416.94 -215.44 416.06 C-215.39 415.19 -215.35 414.31 -215.31 413.41 C-215.2 411.27 -215.1 409.14 -215 407 C-214.67 407 -214.34 407 -214 407 C-213.8 405.21 -213.8 405.21 -213.6 403.39 C-213.42 401.82 -213.24 400.25 -213.06 398.69 C-212.98 397.9 -212.89 397.12 -212.8 396.31 C-212.67 395.17 -212.67 395.17 -212.54 394.01 C-212.46 393.32 -212.38 392.62 -212.3 391.9 C-212 390 -212 390 -211 387 C-210.77 384.61 -210.59 382.21 -210.44 379.81 C-210.35 378.54 -210.27 377.27 -210.18 375.96 C-210.09 374.49 -210.09 374.49 -210 373 C-209.67 373 -209.34 373 -209 373 C-208.67 369.04 -208.34 365.08 -208 361 C-207.34 361 -206.68 361 -206 361 C-205.67 356.38 -205.34 351.76 -205 347 C-204.67 347 -204.34 347 -204 347 C-202 338.2 -202 338.2 -200.5 329.31 C-200 326 -200 326 -199 324 C-198.67 323.01 -198.34 322.02 -198 321 C-197 318 -197 318 -196 316 C-195.85 314.61 -195.73 313.21 -195.62 311.81 C-195.18 307.32 -193.91 304.07 -192 300 C-191.63 298.68 -191.29 297.34 -191 296 C-189.88 291.88 -188.64 287.94 -187 284 C-185.46 279.39 -184.13 274.72 -183 270 C-182.34 270 -181.68 270 -181 270 C-180.95 269.39 -180.9 268.77 -180.85 268.14 C-180.78 267.33 -180.7 266.52 -180.62 265.69 C-180.56 264.89 -180.49 264.09 -180.41 263.26 C-180 261 -180 261 -178 258 C-176.33 254.37 -175.55 250.95 -175 247 C-174.34 247 -173.68 247 -173 247 C-172.5 244.03 -172.5 244.03 -172 241 C-171.34 241 -170.68 241 -170 241 C-170.04 240.24 -170.08 239.47 -170.12 238.69 C-170 236 -170 236 -168 233 C-166.71 230.04 -165.7 227.15 -165 224 C-164.34 224 -163.68 224 -163 224 C-163 222.68 -163 221.36 -163 220 C-162.34 219.67 -161.68 219.34 -161 219 C-160.81 217.64 -160.81 217.64 -160.62 216.25 C-159.9 212.46 -158.42 210.94 -156 208 C-155.84 207.18 -155.67 206.35 -155.5 205.5 C-154.84 202.22 -153.07 200.59 -151 198 C-150.83 197.18 -150.67 196.35 -150.5 195.5 C-149.84 192.22 -148.07 190.59 -146 188 C-145.34 185.47 -145.34 185.47 -145 183 C-143.89 180.41 -143.02 179.02 -141 177 C-140.3 175.69 -139.64 174.35 -139 173 C-137 169 -135 165 -133 161 C-132.34 161 -131.68 161 -131 161 C-129.68 157.7 -128.36 154.4 -127 151 C-126.34 151 -125.68 151 -125 151 C-124.86 150.19 -124.86 150.19 -124.71 149.36 C-123.79 146.3 -122.28 143.94 -120.56 141.25 C-119.95 140.27 -119.33 139.28 -118.69 138.27 C-118.13 137.52 -117.58 136.77 -117 136 C-116.34 136 -115.68 136 -115 136 C-114.9 135.24 -114.79 134.47 -114.69 133.69 C-113.93 130.73 -113.13 130.04 -111 128 C-110.29 125.9 -110.29 125.9 -110 124 C-109.34 124 -108.68 124 -108 124 C-107.5 122.51 -107.5 122.51 -107 121 C-106.34 121 -105.68 121 -105 121 C-104.92 120.48 -104.83 119.97 -104.75 119.44 C-103.27 114.63 -100.33 109.79 -97 106 C-96.34 106 -95.68 106 -95 106 C-94.72 104.45 -94.72 104.45 -94.44 102.88 C-93.29 98.75 -91 96.88 -87.66 94.36 C-85.73 92.92 -85.73 92.92 -84 90 C-83.53 89.55 -83.05 89.09 -82.56 88.62 C-80.84 86.96 -80.84 86.96 -79.5 84.38 C-78 82 -78 82 -75 81 C-75 79.68 -75 78.36 -75 77 C-74.34 77 -73.68 77 -73 77 C-72.8 76.46 -72.59 75.93 -72.38 75.38 C-70.08 71.41 -66.58 68.54 -63.26 65.42 C-60.21 62.73 -60.21 62.73 -58.62 59.13 C-57.69 55.95 -55.72 54.35 -53.39 52.02 C-52.91 51.54 -52.44 51.06 -51.94 50.56 C-50.36 48.97 -48.77 47.39 -47.18 45.81 C-46.07 44.71 -44.96 43.6 -43.86 42.5 C-41.54 40.18 -39.22 37.86 -36.89 35.56 C-33.92 32.61 -30.96 29.64 -28 26.68 C-25.72 24.39 -23.43 22.11 -21.14 19.83 C-20.05 18.74 -18.95 17.65 -17.86 16.56 C-16.33 15.03 -14.79 13.5 -13.26 11.98 C-12.38 11.11 -11.51 10.25 -10.61 9.35 C-8 7 -8 7 -4.8 4.88 C-1.81 3.13 -1.81 3.13 0 0 Z M-91 99 C-91.33 99.66 -91.66 100.32 -92 101 C-91.34 101 -90.68 101 -90 101 C-90.33 100.34 -90.66 99.68 -91 99 Z " fill="#FAD737" transform="translate(217,156)"/>
<path d="M0 0 C0.86 -0 1.72 -0.01 2.6 -0.01 C3.54 -0.01 4.48 -0 5.44 -0 C6.43 -0 7.42 -0.01 8.44 -0.01 C11.73 -0.01 15.01 -0.01 18.29 -0.01 C20.56 -0.01 22.84 -0.01 25.11 -0.01 C29.88 -0.01 34.66 -0.01 39.43 -0 C45.55 0 51.68 -0 57.8 -0.01 C62.5 -0.01 67.2 -0.01 71.9 -0.01 C74.16 -0.01 76.41 -0.01 78.67 -0.01 C81.82 -0.01 84.98 -0.01 88.13 -0 C89.54 -0.01 89.54 -0.01 90.97 -0.01 C91.83 -0.01 92.69 -0 93.57 0 C94.32 0 95.07 0 95.83 0 C97.79 0.13 97.79 0.13 100.79 1.13 C102.13 1.25 103.47 1.33 104.81 1.37 C105.6 1.4 106.39 1.44 107.2 1.47 C108.03 1.5 108.87 1.53 109.72 1.56 C117.22 1.9 124.42 2.69 131.79 4.13 C137.55 5.16 143.26 6.13 149.1 6.56 C162.23 7.64 175.17 11.31 187.95 14.36 C188.87 14.58 189.79 14.8 190.74 15.02 C192.56 15.46 194.37 15.89 196.19 16.33 C201.07 17.49 205.95 18.62 210.86 19.67 C212.79 20.13 212.79 20.13 216.04 21.25 C218.67 22.27 218.67 22.27 221.1 22 C223.91 22.13 225.22 22.69 227.72 23.88 C231.65 25.73 235.54 26.98 239.72 28.13 C244.82 29.52 249.65 31.16 254.52 33.2 C256.63 34.06 258.74 34.8 260.91 35.5 C271.2 38.85 281.27 42.91 291.35 46.81 C292.46 47.24 292.46 47.24 293.58 47.68 C298.03 49.41 302.42 51.23 306.79 53.13 C306.79 53.79 306.79 54.45 306.79 55.13 C308.45 55.46 310.12 55.79 311.79 56.13 C313.45 56.46 315.12 56.79 316.79 57.13 C317.12 58.12 317.45 59.11 317.79 60.13 C317.08 60.62 316.37 61.11 315.65 61.61 C299.57 73.33 285.39 87.99 273.79 104.13 C273.06 105.1 272.34 106.07 271.59 107.06 C260.45 122.42 251.35 139.34 244.79 157.13 C241.05 156.54 238.19 155.48 234.87 153.69 C233.93 153.19 233 152.69 232.04 152.18 C231.05 151.65 230.06 151.11 229.04 150.56 C226.94 149.46 224.85 148.36 222.75 147.26 C221.73 146.72 220.7 146.18 219.65 145.62 C182.26 126.05 137.72 112.93 95.51 110.43 C92.17 110.16 88.99 109.67 85.69 109.12 C74.3 107.45 62.72 107.79 51.24 107.81 C47.29 107.82 43.33 107.79 39.38 107.77 C15.69 107.71 -7.99 109.24 -31.21 114.13 C-32.08 114.3 -32.95 114.48 -33.84 114.67 C-52.29 118.47 -70.42 122.88 -88.21 129.13 C-89.39 129.53 -90.58 129.93 -91.79 130.34 C-98.81 132.76 -105.52 135.55 -112.22 138.74 C-114.74 139.91 -117.24 140.92 -119.84 141.88 C-125.12 143.93 -130.08 146.56 -135.09 149.19 C-135.92 149.63 -136.75 150.06 -137.61 150.51 C-142.14 152.89 -142.14 152.89 -146.31 155.8 C-148.21 157.13 -148.21 157.13 -150.8 156.68 C-153.98 154.64 -154.56 152.84 -155.84 149.31 C-157.33 145.28 -158.99 141.81 -161.21 138.13 C-162.22 135.8 -163.22 133.46 -164.21 131.13 C-168.38 122.94 -173.28 115.38 -178.65 107.94 C-179.42 106.87 -179.42 106.87 -180.2 105.78 C-187.43 95.93 -195.2 86.82 -203.91 78.23 C-205.35 76.8 -206.78 75.37 -208.22 73.94 C-212.15 70.03 -216.06 66.18 -220.33 62.65 C-223.21 60.13 -223.21 60.13 -224.21 57.13 C-222.23 57.13 -220.25 57.13 -218.21 57.13 C-218.21 56.47 -218.21 55.81 -218.21 55.13 C-215.74 54.63 -215.74 54.63 -213.21 54.13 C-213.21 53.47 -213.21 52.81 -213.21 52.13 C-210.24 51.63 -210.24 51.63 -207.21 51.13 C-207.21 50.47 -207.21 49.81 -207.21 49.13 C-204.24 48.63 -204.24 48.63 -201.21 48.13 C-201.21 47.8 -201.21 47.47 -201.21 47.13 C-197.58 46.14 -193.95 45.15 -190.21 44.13 C-190.21 43.47 -190.21 42.81 -190.21 42.13 C-188.29 41.94 -188.29 41.94 -186.34 41.75 C-182.86 41.44 -182.86 41.44 -180.21 39.13 C-178.26 38.35 -178.26 38.35 -175.96 37.63 C-175.16 37.37 -174.36 37.11 -173.53 36.85 C-172.77 36.61 -172 36.37 -171.21 36.13 C-167.71 35.02 -165.28 34.17 -162.21 32.13 C-160.17 31.71 -160.17 31.71 -158.03 31.5 C-156.14 31.32 -156.14 31.32 -154.21 31.13 C-154.21 30.47 -154.21 29.81 -154.21 29.13 C-153.43 28.98 -152.65 28.84 -151.84 28.69 C-149.25 28.25 -149.25 28.25 -147.21 27.13 C-144.91 26.86 -142.61 26.68 -140.31 26.51 C-138 26.29 -138 26.29 -136.21 24.13 C-131.43 22.53 -126.59 21.59 -121.65 20.63 C-116 19.74 -116 19.74 -111.21 17.13 C-108.7 16.84 -106.18 16.68 -103.66 16.51 C-100.96 16.26 -100.96 16.26 -98.21 14.13 C-96.17 13.71 -96.17 13.71 -94.03 13.5 C-92.77 13.38 -91.51 13.25 -90.21 13.13 C-90.21 12.8 -90.21 12.47 -90.21 12.13 C-89.14 12.08 -88.07 12.03 -86.97 11.98 C-85.57 11.9 -84.17 11.83 -82.78 11.75 C-82.07 11.72 -81.36 11.69 -80.63 11.66 C-78.82 11.55 -77.01 11.35 -75.21 11.13 C-74.88 10.47 -74.55 9.81 -74.21 9.13 C-67.57 6.91 -60.38 6.83 -53.46 6.41 C-50.23 6.13 -47.4 5.51 -44.3 4.6 C-39.7 3.55 -34.91 3.42 -30.21 3.13 C-30.21 2.8 -30.21 2.47 -30.21 2.13 C-29.53 2.1 -28.85 2.08 -28.15 2.05 C-25.07 1.94 -21.98 1.81 -18.9 1.69 C-17.83 1.65 -16.76 1.61 -15.65 1.57 C-14.62 1.53 -13.6 1.49 -12.54 1.44 C-11.59 1.41 -10.64 1.37 -9.66 1.33 C-6.29 1.05 -3.44 0 0 0 Z " fill="#FAD737" transform="translate(593.212890625,-0.126983642578125)"/>
<path d="M0 0 C9.84 8.45 18.33 17.85 25 29 C25.52 29.87 25.52 29.87 26.06 30.76 C36.21 47.86 41.3 67.02 40 87 C39.92 88.31 39.84 89.62 39.76 90.97 C38.06 112.99 29.49 132.37 15 149 C14.48 149.66 13.97 150.32 13.44 151 C4.08 162.62 -8.56 170.03 -22 176 C-22.93 176.42 -23.86 176.84 -24.81 177.27 C-36.52 182.26 -47.98 183.58 -60.56 183.5 C-61.31 183.5 -62.06 183.5 -62.83 183.49 C-81.68 183.39 -96.66 179.3 -113 170 C-113.98 169.46 -114.97 168.91 -115.98 168.35 C-123.39 163.97 -129.46 158.3 -135.61 152.33 C-136.74 151.25 -137.9 150.2 -139.06 149.16 C-151.09 138.19 -161.35 117.66 -162.19 101.38 C-162.13 100.59 -162.06 99.81 -162 99 C-162.66 98.67 -163.32 98.34 -164 98 C-163.99 97.1 -163.99 96.2 -163.98 95.28 C-163.97 91.95 -163.95 88.62 -163.95 85.29 C-163.94 83.85 -163.93 82.41 -163.92 80.97 C-163.91 78.9 -163.91 76.83 -163.9 74.76 C-163.9 73.51 -163.89 72.27 -163.89 70.98 C-163.79 68.07 -163.79 68.07 -165 66 C-164.01 65.5 -164.01 65.5 -163 65 C-162.17 62.27 -161.44 59.57 -160.75 56.81 C-155.8 38.23 -147.29 23.93 -134 10 C-133.47 9.4 -132.95 8.8 -132.41 8.18 C-99.79 -27.59 -36.99 -29.29 0 0 Z " fill="#FBFDFD" transform="translate(942,277)"/>
<path d="M0 0 C3.61 3.03 6.93 6.32 10.26 9.65 C11.35 10.63 11.35 10.63 12.46 11.63 C25.43 23.56 33.87 41.94 38.26 58.65 C38.62 59.77 38.98 60.89 39.34 62.04 C40.98 68.7 40.7 75.65 40.7 82.46 C40.7 83.2 40.7 83.93 40.7 84.69 C40.64 103.46 36.53 118.37 27.26 134.65 C26.78 135.5 26.3 136.35 25.8 137.22 C21.54 144.09 15.82 149.83 10.26 155.65 C9.63 156.33 9 157.02 8.35 157.72 C-3.32 170.03 -19.58 177.35 -35.74 181.65 C-36.74 182 -37.73 182.34 -38.76 182.7 C-53.02 186.76 -71.64 185.95 -85.74 181.65 C-86.96 181.31 -88.18 180.97 -89.44 180.61 C-104.39 176.08 -116.79 168.59 -128.74 158.65 C-129.63 157.93 -130.53 157.21 -131.45 156.47 C-149.36 141.4 -159.58 117.43 -162.74 94.65 C-164.93 67.38 -157.69 41.1 -140.86 19.34 C-139.51 17.75 -138.13 16.19 -136.74 14.65 C-135.94 13.76 -135.14 12.87 -134.32 11.95 C-120.37 -2.82 -102.32 -12.3 -82.74 -17.35 C-81.92 -17.58 -81.1 -17.8 -80.26 -18.03 C-53.53 -24.19 -21.63 -16.82 0 0 Z " fill="#FBFDFD" transform="translate(459.736328125,276.3505859375)"/>
<path d="M0 0 C0.76 -0 1.53 -0.01 2.32 -0.02 C4.84 -0.03 7.36 -0.04 9.88 -0.04 C11.65 -0.05 13.41 -0.05 15.17 -0.06 C18.87 -0.07 22.56 -0.08 26.25 -0.08 C30.97 -0.08 35.68 -0.11 40.39 -0.14 C44.03 -0.16 47.68 -0.16 51.32 -0.16 C53.05 -0.17 54.79 -0.17 56.53 -0.19 C73.86 -0.31 73.86 -0.31 82.25 3.16 C82.96 3.44 83.68 3.72 84.41 4.01 C93.99 7.94 100.95 17.03 105.25 26.16 C109.2 36.21 109.88 47.36 106.36 57.64 C104.64 61.55 102.5 65.18 100.26 68.81 C98 72.57 95.92 76.4 93.83 80.25 C89.1 88.95 84.17 97.56 79.25 106.16 C78.44 107.57 78.44 107.57 77.63 109 C62.03 136.2 62.03 136.2 47.25 142.16 C46.26 142.16 45.27 142.16 44.25 142.16 C44.27 145.81 44.35 149.45 44.43 153.1 C44.44 154.12 44.45 155.14 44.45 156.19 C44.69 164.55 46.55 170.65 52.71 176.5 C53.94 177.29 53.94 177.29 55.18 178.1 C56 178.64 56.81 179.19 57.65 179.75 C65.13 183.81 73.64 184.7 81.88 182.44 C89.7 179.16 94.5 174.64 98.19 167.05 C100.01 162.09 99.91 157.21 99.87 151.97 C99.87 136.96 99.87 136.96 104.83 131.38 C109.05 128.45 111.96 127.3 117.25 128.16 C122.23 130.65 124.31 132.99 126.25 138.16 C126.69 142.21 126.67 146.22 126.62 150.29 C126.63 151.35 126.65 152.42 126.66 153.51 C126.59 171.01 120.51 183.88 108.25 196.16 C107.67 196.75 107.09 197.34 106.5 197.94 C95.62 208.17 81.39 209.75 67.18 209.48 C61.05 209.2 55.8 207.78 50.25 205.16 C49.46 204.8 48.68 204.44 47.88 204.06 C41.73 200.92 36.51 196.59 31.25 192.16 C30.76 192.52 30.28 192.89 29.78 193.26 C28.36 194.33 26.94 195.39 25.52 196.44 C24.09 197.52 22.68 198.62 21.29 199.75 C9.22 209.41 -4.85 210.28 -19.75 209.16 C-33.49 206.76 -46.22 199.19 -54.75 188.16 C-62.1 176.37 -65.11 165.54 -65.13 151.66 C-65.15 150.57 -65.18 149.48 -65.2 148.36 C-65.23 141.49 -64.5 136.98 -60.75 131.16 C-56.46 128.11 -52.95 127.68 -47.75 128.16 C-44.4 129.02 -43.7 130.23 -41.67 133.12 C-39.1 137.73 -39.25 142.12 -39.25 147.29 C-39 157.22 -38.64 167.33 -31.69 175.16 C-24.07 181.63 -16.05 184.05 -6.12 183.64 C2.12 182.47 7.55 178.55 12.87 172.32 C16.65 166.39 16.64 160.35 16.68 153.54 C16.73 152.12 16.73 152.12 16.78 150.68 C16.92 145.16 16.92 145.16 13.99 140.68 C13.09 140.18 12.18 139.68 11.25 139.16 C10.52 138.69 9.79 138.22 9.04 137.74 C7.6 136.86 6.16 135.98 4.72 135.11 C-2.07 129.75 -6.4 122.85 -10.5 115.35 C-11.55 113.48 -12.6 111.61 -13.64 109.74 C-14.16 108.8 -14.68 107.86 -15.22 106.9 C-17.52 102.79 -19.88 98.73 -22.25 94.66 C-23.15 93.11 -24.05 91.55 -24.95 90 C-26.93 86.57 -28.93 83.15 -30.93 79.73 C-48.06 50.35 -48.06 50.35 -44.05 31.95 C-40.22 20.41 -32.49 10.21 -21.62 4.52 C-14.28 1.38 -7.98 0.01 0 0 Z " fill="#1E1E21" transform="translate(607.752685546875,303.8388671875)"/>
<path d="M0 0 C6.76 5.19 11.66 10.91 16.23 18.07 C16.71 18.81 17.19 19.55 17.69 20.31 C22.72 28.64 25.61 38.38 26.23 48.07 C26.29 48.84 26.36 49.61 26.42 50.4 C27.23 67.76 20.63 83.29 9.19 96.01 C1.85 103.81 -6.71 108.6 -16.77 112.07 C-17.79 112.43 -18.82 112.8 -19.87 113.18 C-33.02 116.18 -49.42 115.77 -61.77 110.07 C-62.91 109.56 -62.91 109.56 -64.08 109.04 C-75.63 103.25 -84.96 94.99 -91.77 84.07 C-92.28 83.31 -92.79 82.55 -93.31 81.76 C-100.96 67.62 -101.82 50.45 -97.74 35.16 C-93.91 22.94 -88.21 13.8 -78.77 5.07 C-78.24 4.52 -77.72 3.98 -77.18 3.43 C-57.21 -15.99 -21.98 -15.34 0 0 Z " fill="#1D1D20" transform="translate(916.76953125,306.93359375)"/>
<path d="M0 0 C10.86 8.32 20.44 18.97 25 32 C25.39 33.06 25.39 33.06 25.78 34.14 C28.02 40.79 28.47 46.89 28.38 53.88 C28.36 54.93 28.35 55.99 28.34 57.08 C27.99 74.96 21.4 88.95 8.5 101.41 C-4.08 112.35 -17.41 116.36 -33.75 116.38 C-34.85 116.4 -35.96 116.42 -37.09 116.45 C-54.43 116.51 -69.22 108.23 -81.54 96.5 C-88.26 89.59 -92.41 81.19 -95 72 C-95.22 71.21 -95.45 70.43 -95.68 69.62 C-99.75 52.73 -96.28 35.06 -88 20 C-78 5.12 -63.45 -4.18 -46 -8 C-30.67 -10.92 -13.22 -8.8 0 0 Z " fill="#1D1D20" transform="translate(433,305)"/>
<path d="M0 0 C22.39 11.08 36.46 38.86 44.39 61.48 C50.21 78.95 53.7 95.7 46.56 113.44 C44.56 117.1 42.25 120.25 39.56 123.44 C39.01 124.13 38.46 124.83 37.89 125.55 C24.89 140.36 -0.78 146.24 -19.44 149.44 C-20.74 149.66 -22.04 149.89 -23.38 150.12 C-27.26 150.51 -31.16 150.65 -35.06 150.75 C-36.31 150.79 -37.56 150.82 -38.85 150.86 C-44.05 150.25 -47.04 147.87 -50.62 144.19 C-62.87 125.61 -57.19 96.92 -53.11 76.55 C-47.99 52.86 -39.56 17.46 -19.21 1.72 C-12.59 -2.37 -7.2 -2.87 0 0 Z " fill="#1E1E21" transform="translate(289.4375,88.5625)"/>
<path d="M0 0 C8.08 5.89 13.43 13.77 17.94 22.56 C18.45 23.55 18.96 24.55 19.48 25.57 C32.51 51.77 39.32 83.01 39.25 112.19 C39.27 113.45 39.28 114.72 39.3 116.03 C39.3 126.58 38.63 137.16 31.53 145.5 C27.86 149.1 24.53 150.22 19.5 150.38 C-4.2 149.5 -35.67 142.22 -53.81 126 C-63.48 115.53 -68.15 102.17 -68.06 88.06 C-64.73 56.57 -48.34 24.36 -24.31 3.76 C-17.06 -1.71 -8.4 -4.72 0 0 Z " fill="#433F43" transform="translate(1007.0625,89.9375)"/>
<path d="M0 0 C2.63 3.94 1.77 6.58 1 11 C0.87 11.75 0.74 12.51 0.61 13.29 C0.07 16.44 -0.49 19.58 -1.07 22.73 C-1.92 27.4 -1.92 27.4 -1 32 C-1.72 33.93 -2.45 35.86 -3.22 37.77 C-4.49 41.4 -4.82 45.06 -5.19 48.88 C-5.27 49.63 -5.35 50.39 -5.44 51.17 C-5.86 55.08 -5.86 55.08 -6 59 C-6.66 59 -7.32 59 -8 59 C-7.69 60.52 -7.69 60.52 -7.38 62.06 C-7 66 -7 66 -7.94 69.25 C-9.05 73.17 -9.4 76.84 -9.56 80.88 C-10 89.55 -10 89.55 -10.5 93.5 C-10.93 96.93 -11.14 100.36 -11.32 103.81 C-11.64 109.82 -12.19 115.57 -13.53 121.45 C-14.54 126.9 -14.66 132.48 -15 138 C-15.16 140.1 -15.32 142.21 -15.5 144.31 C-15.57 145.2 -15.64 146.08 -15.72 146.99 C-16 149 -16 149 -17 150 C-17.06 151.87 -17.06 153.74 -17.03 155.61 C-17.02 156.76 -17 157.9 -16.99 159.09 C-16.96 161.51 -16.92 163.94 -16.87 166.37 C-16.86 167.52 -16.85 168.67 -16.84 169.86 C-16.82 170.92 -16.81 171.97 -16.79 173.06 C-17.01 176.12 -17.82 178.19 -19 181 C-19.25 183.17 -19.25 183.17 -19.16 185.32 C-19.15 186.1 -19.14 186.89 -19.13 187.69 C-19.1 188.9 -19.1 188.9 -19.06 190.12 C-19.03 191.73 -19 193.34 -18.97 194.95 C-18.95 195.65 -18.94 196.36 -18.92 197.09 C-19 199 -19 199 -20 202 C-20.13 203.46 -20.22 204.92 -20.28 206.38 C-20.32 207.22 -20.36 208.06 -20.39 208.92 C-20.46 210.69 -20.54 212.45 -20.61 214.22 C-20.64 215.05 -20.68 215.89 -20.72 216.75 C-20.75 217.52 -20.78 218.29 -20.81 219.08 C-21 221 -21 221 -22 223 C-22.06 224.7 -22.06 226.4 -22.03 228.1 C-22.01 229.14 -22 230.18 -21.99 231.25 C-21.97 232.37 -21.95 233.48 -21.94 234.62 C-21.87 242.11 -21.92 249.4 -23.06 256.81 C-23.94 262.64 -23.96 267.81 -23.19 273.64 C-23 276 -23 276 -24 279 C-24.66 279 -25.32 279 -26 279 C-26 279.66 -26 280.32 -26 281 C-25.34 281 -24.68 281 -24 281 C-24.26 285.66 -24.53 290.33 -24.8 294.99 C-24.89 296.58 -24.98 298.16 -25.07 299.75 C-25.2 302.03 -25.33 304.31 -25.46 306.59 C-25.52 307.65 -25.52 307.65 -25.58 308.74 C-25.89 313.77 -25.89 313.77 -27 316 C-26.67 318.33 -26.34 320.67 -26 323 C-26.33 323.33 -26.66 323.66 -27 324 C-27.06 325.37 -27.06 326.74 -27.03 328.11 C-27.01 329 -27 329.88 -26.99 330.8 C-26.97 331.77 -26.95 332.75 -26.94 333.75 C-26.8 347.89 -27.87 361.91 -29 376 C-29.66 376 -30.32 376 -31 376 C-30.67 376.66 -30.34 377.32 -30 378 C-29.9 380.47 -29.86 382.91 -29.88 385.38 C-29.88 386.09 -29.88 386.8 -29.88 387.54 C-30.01 402.1 -30.01 402.1 -31.56 408.22 C-32.15 410 -32.15 410 -31.56 411.75 C-30.46 416.16 -30.56 420.68 -32 425 C-31.72 426.08 -31.72 426.08 -31.44 427.19 C-30.94 430.37 -31.67 432.49 -32.53 435.55 C-33.09 438.49 -33.02 441.19 -32.94 444.19 C-32.75 454.91 -34.57 465.61 -36.6 476.12 C-37.21 480.49 -37.01 484.85 -36.87 489.25 C-36.79 494.58 -36.79 494.58 -37.99 496.97 C-39.1 499.2 -39.28 500.65 -39.34 503.12 C-39.39 504.3 -39.39 504.3 -39.43 505.5 C-39.45 506.32 -39.48 507.15 -39.5 508 C-39.76 514.5 -40.3 520.73 -41.53 527.14 C-42.26 531.56 -42.49 536.01 -42.75 540.48 C-43 543 -43 543 -44 544 C-44.19 545.48 -44.32 546.97 -44.43 548.45 C-44.5 549.38 -44.57 550.3 -44.65 551.25 C-44.72 552.24 -44.8 553.23 -44.88 554.25 C-45.49 561.68 -46.4 568.72 -48.29 575.95 C-49.08 579.36 -49.52 582.72 -49.94 586.19 C-50.73 592.55 -51.96 598.71 -53.4 604.96 C-54.7 610.58 -55.84 616.21 -56.94 621.88 C-60.09 637.88 -64.28 653.44 -69.34 668.93 C-70.23 671.73 -71.01 674.55 -71.81 677.38 C-74.88 687.5 -79.27 697.54 -84 707 C-84.66 707 -85.32 707 -86 707 C-84.34 701.77 -82.5 696.68 -80.35 691.63 C-46.8 611.99 -41.61 517.03 -28.36 299.18 C-26.47 261.77 -24.53 224.37 -22 187 C-21.92 185.85 -21.84 184.69 -21.76 183.5 C-17.57 121.87 -10.98 60.81 0 0 Z " fill="#535254" transform="translate(389,462)"/>
<path d="M0 0 C10.1 7.77 15.72 20.5 20.24 32.06 C20.76 33.38 21.29 34.7 21.82 36.02 C29.43 54.72 34.96 74.72 36.71 94.88 C36.9 97.82 36.9 97.82 37.51 99.92 C40.7 113.42 38.25 130.78 32 143 C29.75 146.35 27.38 148.74 24 151 C21.03 151.39 18.17 151.66 15.19 151.81 C13.92 151.88 13.92 151.88 12.62 151.95 C5.97 152.2 0.23 151.41 -6.21 149.69 C-9.17 148.84 -9.17 148.84 -13 149 C-13 148.34 -13 147.68 -13 147 C-14.83 146.63 -14.83 146.63 -16.69 146.25 C-21.93 145.1 -26.99 143.47 -32.08 141.8 C-35.14 140.82 -35.14 140.82 -39 141 C-39 140.01 -39 139.02 -39 138 C-39.66 137.92 -40.32 137.84 -41 137.75 C-50.18 135.45 -57.79 130.11 -63.12 122.38 C-63.78 121.45 -63.78 121.45 -64.44 120.5 C-67.79 115.59 -70.27 110.71 -72 105 C-72.22 104.35 -72.44 103.7 -72.67 103.03 C-75.68 93.11 -73.9 83.51 -71.69 73.62 C-71.37 72.2 -71.37 72.2 -71.04 70.74 C-69.86 65.77 -68.45 61.52 -66 57 C-65.25 55.01 -64.52 53.01 -63.81 51 C-61.42 44.67 -58.36 39.02 -54.91 33.23 C-53.33 30.56 -51.83 27.87 -50.38 25.12 C-47.96 20.77 -45.11 16.88 -42 13 C-41.5 12.33 -41 11.66 -40.48 10.97 C-31 -1 -13.82 -9.33 0 0 Z M-46.01 22.4 C-48.12 25.54 -50.08 28.74 -52 32 C-52.39 32.67 -52.78 33.33 -53.19 34.02 C-64.55 53.65 -75.51 78.84 -70.91 101.89 C-66.92 115.52 -58.9 126.99 -46.42 134.02 C-29.67 142.61 -8.84 148.99 10 150 C10.87 150.05 11.74 150.11 12.63 150.16 C17.86 150.34 21.63 150.18 26 147 C33.45 139.69 35.08 130.07 35.4 119.97 C35.41 117.48 35.4 114.99 35.38 112.5 C35.37 111.52 35.37 111.52 35.36 110.51 C35.08 76.39 26.31 28.79 1.05 3.75 C-3.74 -0.35 -8 -2.87 -14.5 -2.49 C-28.2 0.18 -38.3 11.45 -46.01 22.4 Z " fill="#535254" transform="translate(1011,90)"/>
<path d="M0 0 C2.97 0 5.94 0 9 0 C4.58 4.42 -0.05 6.14 -6 7.75 C-13.52 9.99 -20.11 13.3 -27 17 C-27.68 17.36 -28.35 17.72 -29.05 18.09 C-38.35 23.24 -46.83 29.23 -55 36 C-56.39 37.13 -57.77 38.25 -59.16 39.38 C-60.67 40.6 -62.18 41.83 -63.69 43.06 C-64.4 43.64 -65.11 44.22 -65.85 44.81 C-71.79 49.68 -77.42 54.68 -81.94 60.94 C-84.03 63.83 -86.23 66.29 -88.81 68.75 C-93.86 73.68 -97.89 79.29 -102 85 C-102.45 85.62 -102.9 86.24 -103.36 86.88 C-108.57 93.7 -108.57 93.7 -113 101 C-113.66 101 -114.32 101 -115 101 C-115.34 101.99 -115.34 101.99 -115.69 103 C-117.07 106.15 -118.73 108.88 -120.58 111.77 C-124.78 118.37 -128.65 125.12 -132.36 132 C-133.56 134.2 -134.79 136.39 -136.05 138.56 C-136.4 139.17 -136.76 139.79 -137.12 140.42 C-138.14 142.16 -139.15 143.9 -140.17 145.64 C-141.46 148.02 -142.57 150.26 -143.61 152.74 C-145.02 156.05 -146.54 158.38 -149 161 C-149.66 161 -150.32 161 -151 161 C-136.76 132.44 -121.35 104.65 -101.34 79.68 C-100.41 78.51 -99.48 77.33 -98.56 76.15 C-91.17 66.66 -83.18 57.89 -74.69 49.38 C-73.31 47.99 -73.31 47.99 -71.9 46.57 C-66.55 41.28 -61.07 36.46 -55 32 C-54.41 31.56 -53.82 31.11 -53.21 30.65 C-37.2 18.66 -19.11 8.15 0 2 C0 1.34 0 0.68 0 0 Z " fill="#535254" transform="translate(601,110)"/>
<path d="M0 0 C2.97 0 5.94 0 9 0 C4.58 4.42 -0.05 6.14 -6 7.75 C-13.52 9.99 -20.11 13.3 -27 17 C-27.68 17.36 -28.35 17.72 -29.05 18.09 C-38.35 23.24 -46.83 29.23 -55 36 C-56.39 37.13 -57.77 38.25 -59.16 39.38 C-60.67 40.6 -62.18 41.83 -63.69 43.06 C-64.4 43.64 -65.11 44.22 -65.85 44.81 C-70.51 48.63 -74.82 52.66 -79 57 C-79.66 56.67 -80.32 56.34 -81 56 C-78.36 53.3 -75.71 50.62 -73.06 47.94 C-72.33 47.19 -71.59 46.43 -70.83 45.66 C-65.86 40.64 -60.68 36.2 -55 32 C-54.41 31.55 -53.82 31.11 -53.21 30.65 C-37.19 18.66 -19.11 8.15 0 2 C0 1.34 0 0.68 0 0 Z " fill="#535254" transform="translate(601,110)"/>
<path d="M0 0 C0.33 0.99 0.66 1.98 1 3 C-0.07 4.83 -1.16 6.65 -2.33 8.42 C-4.37 11.57 -6.26 14.81 -8.12 18.06 C-8.63 18.93 -8.63 18.93 -9.14 19.81 C-10.82 22.73 -12.32 25.65 -13.61 28.75 C-15.02 32.05 -16.55 34.39 -19 37 C-19.66 37 -20.32 37 -21 37 C-18.29 31.56 -15.52 26.15 -12.75 20.75 C-12.19 19.64 -11.63 18.54 -11.05 17.39 C-7.84 11.15 -4.48 5.42 0 0 Z " fill="#535254" transform="translate(471,234)"/>
<path d="M0 0 C1.08 0.01 2.16 0.02 3.27 0.03 C4.09 0.04 4.91 0.05 5.75 0.06 C5.75 0.72 5.75 1.38 5.75 2.06 C6.41 2.39 7.07 2.72 7.75 3.06 C2.14 3.06 -3.47 3.06 -9.25 3.06 C-9.58 2.4 -9.91 1.74 -10.25 1.06 C-6.79 -0 -3.61 -0.04 0 0 Z " fill="#363536" transform="translate(306.25,23.9375)"/>
<path d="M0 0 C1.09 3.25 0.93 4.97 -0.38 8.12 C-0.65 8.81 -0.93 9.49 -1.21 10.2 C-1.77 11.48 -2.37 12.75 -3 14 C-3.99 13.67 -4.98 13.34 -6 13 C-6 12.34 -6 11.68 -6 11 C-5.34 11 -4.68 11 -4 11 C-3.9 9.93 -3.79 8.86 -3.69 7.75 C-3.03 4.14 -2.43 2.64 0 0 Z " fill="#54524B" transform="translate(303,1169)"/>
<path d="M0 0 C5.62 4.67 11.16 9.51 16 15 C16 15.66 16 16.32 16 17 C12.33 15.78 10.55 13.76 8 11 C7.31 10.25 6.61 9.51 5.9 8.74 C0 2.27 0 2.27 0 0 Z " fill="#E0D6A4" transform="translate(159,1063)"/>
<path d="M0 0 C0.66 0 1.32 0 2 0 C2.98 2.94 3.16 4.99 3.19 8.06 C3.2 8.94 3.22 9.82 3.23 10.72 C3 13 3 13 1 15 C-0 11.69 -0.1 8.7 -0.06 5.25 C-0.05 4.27 -0.04 3.28 -0.04 2.27 C-0.02 1.52 -0.01 0.77 0 0 Z " fill="#000000" transform="translate(817,352)"/>
<path d="M0 0 C1 3 1 3 -0.69 6.56 C-2.4 9.39 -3.76 10.96 -7 12 C-5.62 9.13 -4.08 6.44 -2.38 3.75 C-1.93 3.04 -1.48 2.34 -1.02 1.61 C-0.69 1.08 -0.35 0.55 0 0 Z " fill="#525153" transform="translate(457,259)"/>
<path d="M0 0 C3.63 0 7.26 0 11 0 C11 0.33 11 0.66 11 1 C7.37 1 3.74 1 0 1 C0 0.67 0 0.34 0 0 Z " fill="#000002" transform="translate(720,1275)"/>
<path d="M0 0 C3.63 0 7.26 0 11 0 C11 0.33 11 0.66 11 1 C7.37 1 3.74 1 0 1 C0 0.67 0 0.34 0 0 Z " fill="#FBD838" transform="translate(725,1273)"/>
<path d="M0 0 C3.3 0 6.6 0 10 0 C10 0.33 10 0.66 10 1 C6.7 1 3.4 1 0 1 C0 0.67 0 0.34 0 0 Z " fill="#000002" transform="translate(549,1275)"/>
<path d="M0 0 C3.3 0 6.6 0 10 0 C10 0.33 10 0.66 10 1 C6.7 1 3.4 1 0 1 C0 0.67 0 0.34 0 0 Z " fill="#FBD838" transform="translate(756,1268)"/>
<path d="M0 0 C3.3 0 6.6 0 10 0 C10 0.33 10 0.66 10 1 C6.7 1 3.4 1 0 1 C0 0.67 0 0.34 0 0 Z " fill="#FBD838" transform="translate(514,1268)"/>
<path d="M0 0 C2.31 0 4.62 0 7 0 C7 0.33 7 0.66 7 1 C4.69 1 2.38 1 0 1 C0 0.67 0 0.34 0 0 Z " fill="#FBD838" transform="translate(801,1258)"/>
<path d="M0 0 C2.31 0 4.62 0 7 0 C7 0.33 7 0.66 7 1 C4.69 1 2.38 1 0 1 C0 0.67 0 0.34 0 0 Z " fill="#FBD838" transform="translate(819,1253)"/>
<path d="M0 0 C1.98 0 3.96 0 6 0 C6 0.33 6 0.66 6 1 C4.02 1 2.04 1 0 1 C0 0.67 0 0.34 0 0 Z " fill="#FBE479" transform="translate(454,1253)"/>
<path d="M0 0 C0.33 0 0.66 0 1 0 C1 1.98 1 3.96 1 6 C0.67 6 0.34 6 0 6 C0 4.02 0 2.04 0 0 Z " fill="#000001" transform="translate(1275,721)"/>
<path d="M0 0 C1.65 0 3.3 0 5 0 C5 0.33 5 0.66 5 1 C3.35 1 1.7 1 0 1 C0 0.67 0 0.34 0 0 Z " fill="#000002" transform="translate(475,1260)"/>
<path d="M0 0 C1.65 0 3.3 0 5 0 C5 0.33 5 0.66 5 1 C3.35 1 1.7 1 0 1 C0 0.67 0 0.34 0 0 Z " fill="#FBF5D5" transform="translate(851,1243)"/>
<path d="M0 0 C4 1 4 1 4 1 Z " fill="#000002" transform="translate(757,1270)"/>
<path d="M0 0 C4 1 4 1 4 1 Z " fill="#000002" transform="translate(495,1265)"/>
<path d="M0 0 C4 1 4 1 4 1 Z " fill="#000002" transform="translate(801,1260)"/>
<path d="M0 0 C4 1 4 1 4 1 Z " fill="#FBD838" transform="translate(424,1243)"/>
<path d="M0 0 C3 1 3 1 3 1 Z " fill="#000001" transform="translate(782,1265)"/>
<path d="M0 0 C3 1 3 1 3 1 Z " fill="#000002" transform="translate(458,1255)"/>
<path d="M0 0 C3 1 3 1 3 1 Z " fill="#000002" transform="translate(836,1250)"/>
<path d="M0 0 C3 1 3 1 3 1 Z " fill="#FBD838" transform="translate(398,1233)"/>
<path d="M0 0 C3 1 3 1 3 1 Z " fill="#000000" transform="translate(896,1227)"/>
<path d="" fill="#0A0A0C" transform="translate(0,0)"/>
<path d="M0 0 C2 1 2 1 2 1 Z " fill="#FBD838" transform="translate(752,1270)"/>
<path d="" fill="#433F43" transform="translate(0,0)"/>
<path d="M0 0 C2 1 2 1 2 1 Z " fill="#FBD838" transform="translate(777,1265)"/>
<path d="M0 0 C2 1 2 1 2 1 Z " fill="#FBFDFD" transform="translate(787,1263)"/>
<path d="M0 0 C2 1 2 1 2 1 Z " fill="#000000" transform="translate(814,1257)"/>
<path d="M0 0 C2 1 2 1 2 1 Z " fill="#000001" transform="translate(465,1257)"/>
<path d="M0 0 C2 1 2 1 2 1 Z " fill="#000002" transform="translate(448,1252)"/>
<path d="M0 0 C2 1 2 1 2 1 Z " fill="#000002" transform="translate(442,1250)"/>
<path d="M0 0 C2 1 2 1 2 1 Z " fill="#FBFDFD" transform="translate(840,1248)"/>
<path d="M0 0 C2 1 2 1 2 1 Z " fill="#000002" transform="translate(851,1245)"/>
<path d="M0 0 C2 1 2 1 2 1 Z " fill="#000002" transform="translate(427,1245)"/>
<path d="M0 0 C2 1 2 1 2 1 Z " fill="#FBFDFD" transform="translate(867,1238)"/>
<path d="M0 0 C2 1 2 1 2 1 Z " fill="#FBFDFD" transform="translate(411,1238)"/>
<path d="M0 0 C2 1 2 1 2 1 Z " fill="#000000" transform="translate(405,1237)"/>
<path d="M0 0 C2 1 2 1 2 1 Z " fill="#000002" transform="translate(901,1225)"/>
<path d="M0 0 C2 1 2 1 2 1 Z " fill="#000002" transform="translate(377,1225)"/>
<path d="M0 0 C2 1 2 1 2 1 Z " fill="#FBEA9A" transform="translate(354,1213)"/>
<path d="" fill="#FBD838" transform="translate(0,0)"/>
<path d="M0 0 C2 1 2 1 2 1 Z " fill="#000001" transform="translate(336,1205)"/>
<path d="M0 0 C2 1 2 1 2 1 Z " fill="#000002" transform="translate(950,1200)"/>
<path d="M0 0 C2 1 2 1 2 1 Z " fill="#000000" transform="translate(322,1197)"/>
<path d="M0 0 C2 1 2 1 2 1 Z " fill="#FBD838" transform="translate(961,1193)"/>
<path d="M0 0 C2 1 2 1 2 1 Z " fill="#000002" transform="translate(968,1190)"/>
<path d="M0 0 C2 1 2 1 2 1 Z " fill="#000000" transform="translate(981,1182)"/>
<path d="M0 0 C2 1 2 1 2 1 Z " fill="#000000" transform="translate(996,1172)"/>
<path d="M0 0 C2 1 2 1 2 1 Z " fill="#000000" transform="translate(1011,1162)"/>
<path d="M0 0 C2 1 2 1 2 1 Z " fill="#FBFDFD" transform="translate(1022,1153)"/>
<path d="M0 0 C2 1 2 1 2 1 Z " fill="#000000" transform="translate(1031,1147)"/>
<path d="M0 0 C2 1 2 1 2 1 Z " fill="#FBFDFD" transform="translate(1059,1123)"/>
<path d="" fill="#FBFDFD" transform="translate(0,0)"/>
<path d="" fill="#FBFDFD" transform="translate(0,0)"/>
<path d="" fill="#000000" transform="translate(0,0)"/>
<path d="" fill="#000000" transform="translate(0,0)"/>
<path d="" fill="#000002" transform="translate(0,0)"/>
<path d="" fill="#FBD838" transform="translate(0,0)"/>
<path d="" fill="#000002" transform="translate(0,0)"/>
<path d="" fill="#0F0F11" transform="translate(0,0)"/>
<path d="" fill="#000002" transform="translate(0,0)"/>
<path d="" fill="#000002" transform="translate(0,0)"/>
<path d="" fill="#000002" transform="translate(0,0)"/>
<path d="M0 0 C2 1 2 1 2 1 Z " fill="#FBD838" transform="translate(472,19)"/>
<path d="" fill="#565352" transform="translate(0,0)"/>
<path d="" fill="#000000" transform="translate(0,0)"/>
<path d="" fill="#000002" transform="translate(0,0)"/>
<path d="" fill="#565352" transform="translate(0,0)"/>
<path d="" fill="#FBFDFD" transform="translate(0,0)"/>
<path d="" fill="#000002" transform="translate(0,0)"/>
<path d="" fill="#000002" transform="translate(0,0)"/>
<path d="" fill="#000002" transform="translate(0,0)"/>
<path d="" fill="#000000" transform="translate(0,0)"/>
<path d="" fill="#000002" transform="translate(0,0)"/>
<path d="" fill="#000002" transform="translate(0,0)"/>
<path d="" fill="#000002" transform="translate(0,0)"/>
<path d="" fill="#000002" transform="translate(0,0)"/>
<path d="" fill="#000000" transform="translate(0,0)"/>
<path d="" fill="#000002" transform="translate(0,0)"/>
<path d="" fill="#FBFDFD" transform="translate(0,0)"/>
<path d="" fill="#000000" transform="translate(0,0)"/>
<path d="" fill="#FBFDFD" transform="translate(0,0)"/>
<path d="" fill="#000002" transform="translate(0,0)"/>
<path d="" fill="#FBFDFD" transform="translate(0,0)"/>
<path d="" fill="#000000" transform="translate(0,0)"/>
<path d="" fill="#000000" transform="translate(0,0)"/>
<path d="" fill="#FBFDFD" transform="translate(0,0)"/>
<path d="" fill="#FBFDFD" transform="translate(0,0)"/>
<path d="" fill="#000002" transform="translate(0,0)"/>
<path d="" fill="#565352" transform="translate(0,0)"/>
<path d="" fill="#FBFDFD" transform="translate(0,0)"/>
<path d="" fill="#000002" transform="translate(0,0)"/>
<path d="" fill="#000002" transform="translate(0,0)"/>
<path d="" fill="#000002" transform="translate(0,0)"/>
<path d="" fill="#000002" transform="translate(0,0)"/>
<path d="" fill="#000002" transform="translate(0,0)"/>
<path d="" fill="#000002" transform="translate(0,0)"/>
<path d="" fill="#000000" transform="translate(0,0)"/>
<path d="" fill="#000002" transform="translate(0,0)"/>
<path d="" fill="#000000" transform="translate(0,0)"/>
<path d="" fill="#000002" transform="translate(0,0)"/>
<path d="" fill="#000002" transform="translate(0,0)"/>
<path d="" fill="#000000" transform="translate(0,0)"/>
<path d="" fill="#000002" transform="translate(0,0)"/>
<path d="" fill="#000000" transform="translate(0,0)"/>
<path d="" fill="#000002" transform="translate(0,0)"/>
<path d="" fill="#000000" transform="translate(0,0)"/>
<path d="" fill="#000002" transform="translate(0,0)"/>
<path d="" fill="#000000" transform="translate(0,0)"/>
<path d="" fill="#000002" transform="translate(0,0)"/>
<path d="" fill="#000000" transform="translate(0,0)"/>
<path d="" fill="#000002" transform="translate(0,0)"/>
<path d="" fill="#000000" transform="translate(0,0)"/>
<path d="" fill="#000002" transform="translate(0,0)"/>
<path d="" fill="#000000" transform="translate(0,0)"/>
<path d="" fill="#000002" transform="translate(0,0)"/>
<path d="" fill="#000000" transform="translate(0,0)"/>
<path d="" fill="#000002" transform="translate(0,0)"/>
<path d="" fill="#000000" transform="translate(0,0)"/>
<path d="" fill="#000002" transform="translate(0,0)"/>
<path d="" fill="#000000" transform="translate(0,0)"/>
<path d="" fill="#000002" transform="translate(0,0)"/>
<path d="" fill="#000002" transform="translate(0,0)"/>
<path d="" fill="#000002" transform="translate(0,0)"/>
<path d="" fill="#000000" transform="translate(0,0)"/>
<path d="" fill="#000002" transform="translate(0,0)"/>
<path d="" fill="#000000" transform="translate(0,0)"/>
<path d="" fill="#000000" transform="translate(0,0)"/>
<path d="" fill="#000000" transform="translate(0,0)"/>
<path d="" fill="#000000" transform="translate(0,0)"/>
<path d="" fill="#000000" transform="translate(0,0)"/>
<path d="" fill="#000002" transform="translate(0,0)"/>
<path d="" fill="#000002" transform="translate(0,0)"/>
<path d="" fill="#000000" transform="translate(0,0)"/>
<path d="" fill="#565352" transform="translate(0,0)"/>
<path d="" fill="#000002" transform="translate(0,0)"/>
<path d="" fill="#000002" transform="translate(0,0)"/>
<path d="" fill="#000000" transform="translate(0,0)"/>
<path d="" fill="#000002" transform="translate(0,0)"/>
<path d="" fill="#000002" transform="translate(0,0)"/>
<path d="" fill="#FBD838" transform="translate(0,0)"/>
<path d="" fill="#FBD838" transform="translate(0,0)"/>
<path d="" fill="#FBD838" transform="translate(0,0)"/>
<path d="" fill="#FBD838" transform="translate(0,0)"/>
<path d="" fill="#FBD838" transform="translate(0,0)"/>
<path d="" fill="#FBD838" transform="translate(0,0)"/>
<path d="" fill="#FBD838" transform="translate(0,0)"/>
<path d="" fill="#FBD838" transform="translate(0,0)"/>
<path d="" fill="#FBD838" transform="translate(0,0)"/>
<path d="" fill="#FBD838" transform="translate(0,0)"/>
<path d="" fill="#000000" transform="translate(0,0)"/>
<path d="" fill="#FBD838" transform="translate(0,0)"/>
<path d="" fill="#FBD838" transform="translate(0,0)"/>
<path d="" fill="#FBD838" transform="translate(0,0)"/>
<path d="" fill="#FBD838" transform="translate(0,0)"/>
<path d="" fill="#FBD838" transform="translate(0,0)"/>
<path d="" fill="#FBD838" transform="translate(0,0)"/>
<path d="" fill="#FBD838" transform="translate(0,0)"/>
<path d="" fill="#FBD838" transform="translate(0,0)"/>
<path d="" fill="#FBFDFD" transform="translate(0,0)"/>
<path d="" fill="#FBFDFD" transform="translate(0,0)"/>
<path d="" fill="#FBFDFD" transform="translate(0,0)"/>
<path d="" fill="#000002" transform="translate(0,0)"/>
<path d="" fill="#000002" transform="translate(0,0)"/>
<path d="" fill="#FBFDFD" transform="translate(0,0)"/>
<path d="" fill="#000002" transform="translate(0,0)"/>
<path d="" fill="#FBFDFD" transform="translate(0,0)"/>
<path d="" fill="#000002" transform="translate(0,0)"/>
<path d="" fill="#000002" transform="translate(0,0)"/>
<path d="" fill="#000000" transform="translate(0,0)"/>
<path d="" fill="#FBD838" transform="translate(0,0)"/>
<path d="" fill="#FBFDFD" transform="translate(0,0)"/>
<path d="" fill="#565352" transform="translate(0,0)"/>
<path d="" fill="#FBD838" transform="translate(0,0)"/>
<path d="" fill="#000002" transform="translate(0,0)"/>
<path d="" fill="#000002" transform="translate(0,0)"/>
<path d="" fill="#FBD838" transform="translate(0,0)"/>
<path d="" fill="#000002" transform="translate(0,0)"/>
<path d="" fill="#555353" transform="translate(0,0)"/>
<path d="" fill="#FBD838" transform="translate(0,0)"/>
<path d="" fill="#FBD838" transform="translate(0,0)"/>
<path d="" fill="#000002" transform="translate(0,0)"/>
<path d="" fill="#000000" transform="translate(0,0)"/>
<path d="" fill="#1E1E21" transform="translate(0,0)"/>
</svg>
